<?xml version="1.0" encoding="utf-8"?>
<!-- Generator: Adobe Illustrator 19.2.0, SVG Export Plug-In . SVG Version: 6.00 Build 0)  -->
<svg version="1.1" id="Layer_1" xmlns="http://www.w3.org/2000/svg" xmlns:xlink="http://www.w3.org/1999/xlink" x="0px" y="0px"
	 viewBox="0 0 415.7 91.6" style="enable-background:new 0 0 415.7 91.6;" xml:space="preserve">
<style type="text/css">
	.st0{fill:#2A4EA1;}
	.st1{fill:#75BF43;}
	.st2{fill:#808184;}
</style>
<path class="st0" d="M103.6,18.3c0-0.3,0.1-0.5,0.3-0.7c0.2-0.2,0.4-0.3,0.7-0.3h6.6c0.3,0,0.5,0.1,0.7,0.3c0.2,0.2,0.3,0.4,0.3,0.7
	v24.1h12.2c0.3,0,0.5,0.1,0.7,0.3c0.2,0.2,0.3,0.4,0.3,0.7v5.8c0,0.3-0.1,0.5-0.3,0.7c-0.2,0.2-0.4,0.3-0.7,0.3h-19.8
	c-0.7,0-1-0.3-1-1V18.3z"/>
<path class="st0" d="M156.8,48.7c0,0.3,0,0.5-0.1,0.7c-0.1,0.2-0.2,0.4-0.4,0.5c-0.2,0.2-0.4,0.3-0.6,0.3c-0.2,0-0.4,0.1-0.6,0.1
	h-4.4c-0.3,0-0.6,0-0.8-0.1c-0.2-0.1-0.3-0.2-0.5-0.3c-0.1-0.1-0.2-0.3-0.3-0.5c-0.1-0.2-0.2-0.4-0.3-0.7l-0.3-1
	c-0.4,0.4-0.9,0.8-1.4,1.2c-0.5,0.4-1.1,0.7-1.7,1c-0.6,0.3-1.3,0.5-2,0.7c-0.7,0.2-1.4,0.3-2.2,0.3c-1.3,0-2.6-0.2-3.9-0.5
	c-1.2-0.3-2.4-0.8-3.5-1.5c-1.1-0.6-2-1.4-2.9-2.3c-0.9-0.9-1.6-1.9-2.3-2.9c-0.6-1.1-1.1-2.2-1.5-3.5c-0.3-1.2-0.5-2.6-0.5-3.9
	c0-2.1,0.4-4,1.1-5.7c0.8-1.8,1.8-3.3,3.1-4.6c1.3-1.3,2.8-2.3,4.6-3.1c1.8-0.7,3.6-1.1,5.7-1.1c0.9,0,1.8,0.1,2.6,0.3
	c0.8,0.2,1.5,0.5,2.2,0.8c0.7,0.4,1.3,0.8,1.8,1.3c0.5,0.5,1,1,1.4,1.6l0.6-2c0.1-0.4,0.3-0.7,0.4-0.9c0.1-0.2,0.2-0.4,0.3-0.5
	c0.1-0.1,0.2-0.2,0.4-0.2c0.2,0,0.4-0.1,0.7-0.1h3.3c0.2,0,0.4,0,0.6,0.1c0.2,0,0.4,0.1,0.6,0.3c0.2,0.2,0.4,0.3,0.4,0.6
	c0.1,0.2,0.1,0.4,0.1,0.7V48.7z M135,36.2c0,1,0.2,1.9,0.5,2.7c0.3,0.9,0.7,1.6,1.3,2.2c0.6,0.6,1.2,1.1,2,1.5
	c0.8,0.4,1.7,0.5,2.6,0.5c1,0,1.9-0.2,2.8-0.5c0.8-0.4,1.6-0.9,2.2-1.5c0.6-0.6,1.1-1.4,1.5-2.2c0.4-0.9,0.5-1.8,0.5-2.7
	c0-0.9-0.2-1.8-0.5-2.7c-0.4-0.9-0.8-1.6-1.5-2.3c-0.6-0.7-1.4-1.2-2.2-1.5c-0.9-0.4-1.8-0.6-2.8-0.6c-1,0-1.8,0.2-2.6,0.6
	c-0.8,0.4-1.5,0.9-2,1.5c-0.6,0.7-1,1.4-1.3,2.3C135.1,34.4,135,35.3,135,36.2"/>
<path class="st0" d="M158.6,24.3c-0.3-0.6-0.4-1.1-0.2-1.6c0.2-0.4,0.6-0.6,1.3-0.6h5.7c0.4,0,0.7,0.1,1,0.3
	c0.3,0.2,0.5,0.5,0.6,0.9c0.3,0.8,0.5,1.7,0.8,2.6s0.6,2,1,3c0.3,1,0.7,2,1,3c0.3,1,0.6,1.9,0.9,2.7c0.3,0.8,0.5,1.6,0.7,2.2
	c0.2,0.6,0.4,1.1,0.5,1.3l4.7-14.8c0.2-0.5,0.4-0.8,0.7-1c0.2-0.2,0.6-0.2,1-0.2h5.3c0.4,0,0.8,0.1,1,0.2c0.2,0.1,0.4,0.2,0.4,0.4
	c0.1,0.2,0.1,0.4,0,0.6c0,0.2-0.1,0.5-0.2,0.7l-2.4,6c0.1,0.3,0.3,0.7,0.6,1.3c0.3,0.6,0.6,1.3,1,2c0.4,0.8,0.8,1.6,1.2,2.4
	c0.4,0.8,0.7,1.6,1,2.3l5.4-14.7c0.2-0.5,0.4-0.8,0.6-1c0.2-0.2,0.5-0.2,0.9-0.2h4.9c0.7,0,1.2,0.1,1.5,0.4c0.3,0.3,0.3,0.8,0,1.5
	l-10.4,25.3c-0.1,0.3-0.3,0.5-0.6,0.7c-0.3,0.2-0.7,0.3-1.2,0.3h-2.3c-0.6,0-1-0.1-1.3-0.3c-0.3-0.2-0.5-0.4-0.6-0.7l-4.1-10.1
	l-4.1,10.1c-0.2,0.3-0.4,0.5-0.6,0.7c-0.2,0.2-0.6,0.3-1,0.3h-2.6c-0.6,0-1-0.1-1.3-0.3c-0.2-0.2-0.4-0.4-0.5-0.7L158.6,24.3z"/>
<path class="st0" d="M214.4,18.4c0-0.3,0.1-0.6,0.3-0.7c0.2-0.2,0.4-0.3,0.7-0.3h14.7c1.3,0,2.5,0.2,3.7,0.7c1.2,0.5,2.2,1.2,3,2
	c0.9,0.9,1.5,1.9,2.1,3c0.5,1.2,0.8,2.4,0.8,3.7c0,1.1-0.2,2.1-0.5,3.1c-0.3,1-0.8,1.8-1.5,2.6c1.1,1,1.9,2.1,2.5,3.5
	c0.6,1.3,0.9,2.8,0.9,4.3c0,1.3-0.3,2.6-0.8,3.8s-1.2,2.3-2.1,3.2c-0.9,0.9-1.9,1.6-3.1,2.2c-1.2,0.5-2.4,0.8-3.7,0.8h-16
	c-0.3,0-0.5-0.1-0.7-0.2c-0.2-0.2-0.3-0.4-0.3-0.7V18.4z M231.1,27.1c0-0.4-0.1-0.9-0.2-1.2c-0.2-0.4-0.4-0.7-0.7-1
	c-0.3-0.3-0.7-0.5-1.1-0.7c-0.4-0.2-0.9-0.3-1.4-0.3h-4.8v6.4h4.7c0.5,0,1-0.1,1.4-0.2c0.4-0.2,0.8-0.4,1.1-0.7
	c0.3-0.3,0.5-0.6,0.7-1C231,28,231.1,27.6,231.1,27.1 M232.2,40c0-0.4-0.1-0.9-0.3-1.3c-0.2-0.4-0.4-0.8-0.7-1.2
	c-0.3-0.3-0.7-0.6-1.1-0.9c-0.4-0.2-0.9-0.3-1.4-0.3h-5.9v7.4h5.9c0.5,0,0.9-0.1,1.4-0.3c0.4-0.2,0.8-0.5,1.1-0.8
	c0.3-0.3,0.6-0.7,0.7-1.2C232.2,40.9,232.2,40.5,232.2,40"/>
<path class="st0" d="M243,23.8c0-0.3,0.1-0.5,0.2-0.7c0.1-0.2,0.2-0.4,0.4-0.5c0.2-0.1,0.4-0.2,0.6-0.3c0.2-0.1,0.4-0.1,0.6-0.1h3.4
	c0.4,0,0.7,0.1,0.9,0.3c0.2,0.2,0.4,0.5,0.6,0.8c0.2,0.3,0.3,0.7,0.4,1.1c0.1,0.4,0.3,0.8,0.4,1.2c0.4-0.5,0.9-1,1.3-1.4
	c0.4-0.5,0.9-0.9,1.4-1.3c0.5-0.4,1.1-0.7,1.7-0.9c0.6-0.2,1.3-0.3,2.1-0.3c0.8,0,1.5,0.1,2.1,0.2c0.6,0.1,1.2,0.3,1.8,0.5
	c0.6,0.2,1.1,0.5,1.7,0.9c0.6,0.4,1.2,0.8,1.8,1.2c0.6,0.4,1,0.8,1,1.3c0,0.3-0.1,0.7-0.4,1.1l-2,3.4c-0.4,0.6-0.9,0.9-1.5,0.9
	c-0.3,0-0.6-0.1-1-0.2c-0.6-0.6-1.3-1.1-1.9-1.4c-0.7-0.3-1.4-0.5-2.3-0.5c-0.6,0-1.1,0.1-1.5,0.2c-0.4,0.2-0.8,0.4-1.2,0.7
	c-0.4,0.3-0.7,0.7-1,1.1c-0.3,0.4-0.6,0.9-0.9,1.4v16.1c0,0.6-0.1,1-0.4,1.3c-0.3,0.3-0.7,0.4-1.4,0.4h-5c-1.2,0-1.7-0.6-1.7-1.7
	V23.8z"/>
<path class="st0" d="M265.2,36.2c0-1.4,0.2-2.7,0.5-3.9c0.3-1.3,0.8-2.4,1.5-3.5c0.6-1.1,1.4-2,2.3-2.9c0.9-0.9,1.9-1.6,2.9-2.3
	c1.1-0.6,2.2-1.1,3.5-1.4c1.3-0.3,2.6-0.5,3.9-0.5c2,0,3.9,0.4,5.7,1.1c1.8,0.7,3.3,1.8,4.6,3.1c1.3,1.3,2.3,2.8,3.1,4.6
	c0.8,1.8,1.1,3.7,1.1,5.7c0,1.4-0.2,2.7-0.5,3.9c-0.3,1.3-0.8,2.4-1.5,3.5c-0.6,1.1-1.4,2.1-2.3,2.9c-0.9,0.9-1.9,1.6-2.9,2.3
	c-1.1,0.6-2.2,1.1-3.5,1.5c-1.2,0.3-2.5,0.5-3.9,0.5c-1.4,0-2.7-0.2-3.9-0.5c-1.3-0.3-2.4-0.8-3.5-1.5c-1.1-0.6-2.1-1.4-2.9-2.3
	c-0.9-0.9-1.6-1.9-2.3-2.9c-0.6-1.1-1.1-2.2-1.5-3.5C265.4,38.9,265.2,37.6,265.2,36.2 M273.3,36.2c0,1,0.2,1.9,0.5,2.7
	c0.3,0.9,0.7,1.6,1.3,2.2c0.6,0.6,1.2,1.1,2,1.5c0.8,0.4,1.7,0.5,2.7,0.5c1,0,1.8-0.2,2.6-0.5c0.8-0.4,1.4-0.9,2-1.5
	c0.5-0.6,1-1.4,1.2-2.2c0.3-0.9,0.4-1.8,0.4-2.7c0-0.9-0.1-1.8-0.4-2.7c-0.3-0.9-0.7-1.6-1.2-2.3c-0.5-0.7-1.2-1.2-2-1.5
	c-0.8-0.4-1.6-0.6-2.6-0.6c-1,0-1.9,0.2-2.7,0.6c-0.8,0.4-1.5,0.9-2,1.5c-0.6,0.7-1,1.4-1.3,2.3C273.5,34.4,273.3,35.3,273.3,36.2"
	/>
<path class="st0" d="M297,17.7c0-0.5,0.2-0.8,0.5-1c0.3-0.2,0.7-0.4,1.3-0.7l5-1.8c0.1,0,0.1,0,0.2,0h0.2c0.5,0,0.9,0.2,1.1,0.5
	c0.2,0.3,0.3,0.7,0.3,1.3l0,6.1h3c0.5,0,0.9,0.1,1.2,0.4c0.3,0.3,0.4,0.7,0.4,1.3v4.3c0,0.6-0.1,1.1-0.4,1.4
	c-0.3,0.3-0.7,0.4-1.2,0.4h-3l0,18.7c0,0.6-0.2,1-0.5,1.3c-0.3,0.3-0.8,0.4-1.4,0.4h-5c-1.1,0-1.7-0.6-1.7-1.7l0-18.7h-2.3
	c-1.1,0-1.7-0.6-1.7-1.8v-4.3c0-1.1,0.6-1.7,1.7-1.7h2.3L297,17.7z"/>
<path class="st0" d="M321.1,25.1c0.3-0.4,0.7-0.8,1.2-1.2c0.5-0.4,1.1-0.8,1.7-1.1c0.6-0.3,1.4-0.6,2.1-0.8c0.8-0.2,1.6-0.3,2.5-0.3
	c1.7,0,3.1,0.3,4.4,1c1.2,0.6,2.3,1.5,3.1,2.7c0.8,1.1,1.4,2.4,1.8,3.9c0.4,1.5,0.6,3.1,0.6,4.8v14.5c0,0.6-0.1,1-0.4,1.3
	c-0.2,0.3-0.6,0.4-1.2,0.4h-5.1c-0.6,0-1.1-0.1-1.3-0.3c-0.2-0.2-0.4-0.6-0.4-1.3V34.1c0-0.6-0.1-1.2-0.4-1.8c-0.2-0.5-0.6-1-1-1.4
	c-0.4-0.4-0.9-0.7-1.5-1c-0.6-0.2-1.1-0.3-1.8-0.3c-0.5,0-1.1,0.1-1.6,0.3c-0.5,0.2-1,0.5-1.4,0.9c-0.4,0.4-0.7,0.9-1,1.4
	c-0.3,0.5-0.4,1.2-0.5,1.8v14.6c0,0.3,0,0.5-0.1,0.8c-0.1,0.3-0.2,0.4-0.4,0.6c-0.2,0.1-0.4,0.2-0.5,0.2c-0.2,0-0.4,0.1-0.6,0.1h-5
	c-0.6,0-1.1-0.2-1.4-0.5c-0.3-0.3-0.4-0.7-0.4-1.2V30.5v-0.2v-6.6v-0.1v-8.2c0-0.5,0.1-0.9,0.4-1.2c0.3-0.3,0.7-0.5,1.4-0.5h5
	c0.3,0,0.7,0.1,1.1,0.4c0.2,0.1,0.3,0.3,0.4,0.6c0.1,0.3,0.1,0.5,0.1,0.7V25.1z"/>
<path class="st0" d="M365.6,46.9c-1.3,1.2-2.8,2.1-4.4,2.8c-1.6,0.7-3.4,1-5.2,1c-2,0-3.9-0.4-5.7-1.1c-1.8-0.7-3.4-1.8-4.8-3.1
	c-1.4-1.3-2.4-2.9-3.2-4.6c-0.8-1.8-1.2-3.7-1.2-5.8c0-1.3,0.2-2.6,0.5-3.8c0.3-1.2,0.8-2.4,1.4-3.4c0.6-1.1,1.3-2,2.1-2.9
	c0.8-0.9,1.8-1.7,2.8-2.3c1-0.6,2.2-1.1,3.4-1.5c1.2-0.4,2.5-0.5,3.8-0.5c1.2,0,2.4,0.2,3.6,0.5c1.2,0.3,2.2,0.8,3.3,1.4
	c1,0.6,1.9,1.3,2.8,2.1c0.8,0.8,1.6,1.7,2.2,2.7c0.6,1,1.1,2,1.4,3.2c0.3,1.1,0.5,2.3,0.5,3.5c0,0.8,0,1.4,0,1.9
	c0,0.5-0.1,0.9-0.3,1.2c-0.2,0.3-0.6,0.5-1,0.6c-0.5,0.1-1.2,0.2-2.1,0.2h-16c0.1,0.9,0.4,1.7,0.9,2.4c0.5,0.6,1,1.1,1.6,1.5
	c0.6,0.4,1.2,0.6,1.9,0.8c0.7,0.2,1.3,0.2,1.9,0.2c0.5,0,1.1-0.1,1.6-0.2c0.6-0.1,1.1-0.3,1.6-0.4c0.5-0.2,1-0.4,1.4-0.6
	c0.4-0.2,0.8-0.5,1.1-0.8c0.2-0.2,0.4-0.3,0.6-0.4c0.2-0.1,0.4-0.1,0.5-0.1s0.4,0.1,0.6,0.2c0.2,0.1,0.4,0.3,0.7,0.6l2.4,2.7
	c0.2,0.2,0.3,0.4,0.3,0.5c0,0.2,0.1,0.3,0.1,0.5c0,0.3-0.1,0.6-0.2,0.8C366,46.6,365.8,46.8,365.6,46.9 M354.9,28.5
	c-0.6,0-1.1,0.1-1.7,0.3c-0.5,0.2-1,0.5-1.5,0.9c-0.5,0.4-0.9,0.8-1.3,1.3c-0.4,0.5-0.7,1-0.9,1.5h11.3c-0.3-0.6-0.6-1.1-1-1.6
	c-0.4-0.5-0.8-0.9-1.2-1.3c-0.5-0.4-1-0.7-1.6-0.9C356.4,28.6,355.7,28.5,354.9,28.5"/>
<path class="st0" d="M371.6,23.8c0-0.3,0.1-0.5,0.2-0.7c0.1-0.2,0.2-0.4,0.4-0.5s0.4-0.2,0.6-0.3c0.2-0.1,0.4-0.1,0.6-0.1h3.4
	c0.4,0,0.7,0.1,0.9,0.3c0.2,0.2,0.4,0.5,0.6,0.8c0.2,0.3,0.3,0.7,0.4,1.1c0.1,0.4,0.3,0.8,0.4,1.2c0.4-0.5,0.9-1,1.3-1.4
	c0.4-0.5,0.9-0.9,1.4-1.3c0.5-0.4,1.1-0.7,1.7-0.9c0.6-0.2,1.3-0.3,2.1-0.3c0.8,0,1.5,0.1,2.1,0.2c0.6,0.1,1.2,0.3,1.8,0.5
	c0.6,0.2,1.1,0.5,1.7,0.9c0.6,0.4,1.2,0.8,1.8,1.2c0.6,0.4,1,0.8,1,1.3c0,0.3-0.1,0.7-0.4,1.1l-2,3.4c-0.4,0.6-0.9,0.9-1.5,0.9
	c-0.3,0-0.6-0.1-1-0.2c-0.6-0.6-1.3-1.1-1.9-1.4c-0.7-0.3-1.4-0.5-2.3-0.5c-0.6,0-1.1,0.1-1.5,0.2c-0.4,0.2-0.8,0.4-1.2,0.7
	s-0.7,0.7-1,1.1c-0.3,0.4-0.6,0.9-0.9,1.4v16.1c0,0.6-0.1,1-0.4,1.3c-0.3,0.3-0.7,0.4-1.4,0.4h-5c-1.2,0-1.7-0.6-1.7-1.7V23.8z"/>
<path class="st0" d="M398.4,41.5c0.4,0.4,0.8,0.7,1.3,1c0.5,0.3,0.9,0.5,1.3,0.7c0.4,0.2,0.8,0.3,1.1,0.4c0.3,0.1,0.5,0.1,0.7,0.1
	c0.3,0,0.6,0,1.1,0c0.4,0,0.9-0.1,1.3-0.2c0.4-0.1,0.7-0.3,1-0.5c0.3-0.3,0.4-0.6,0.4-1.1c0-0.4-0.1-0.7-0.2-1
	c-0.2-0.2-0.4-0.5-0.7-0.6c-0.3-0.2-0.7-0.3-1.1-0.5c-0.4-0.1-1-0.3-1.5-0.5c-1.8-0.5-3.2-1-4.4-1.7c-1.2-0.7-2.1-1.4-2.7-2.2
	c-0.7-0.8-1.1-1.7-1.4-2.7c-0.3-0.9-0.4-1.9-0.4-3c0-1.2,0.2-2.3,0.7-3.4c0.5-1,1.2-1.9,2.1-2.6c0.9-0.7,2-1.3,3.2-1.7
	c1.3-0.4,2.7-0.6,4.2-0.6c0.9,0,1.8,0.1,2.6,0.2c0.8,0.2,1.6,0.4,2.3,0.7c0.7,0.3,1.5,0.8,2.2,1.3c0.7,0.5,1.4,1.1,2.1,1.9
	c0.3,0.3,0.4,0.6,0.4,0.8c0,0.3-0.2,0.5-0.5,0.8c-0.6,0.5-1.1,0.9-1.7,1.4c-0.5,0.5-1.1,1-1.6,1.5c-0.2,0.1-0.4,0.2-0.5,0.3
	c-0.2,0-0.3,0-0.5,0c-0.2,0-0.3-0.1-0.5-0.2c-0.1-0.1-0.3-0.2-0.4-0.4c-0.5-0.6-1.1-1-1.8-1.2c-0.7-0.2-1.3-0.3-1.9-0.3
	c-0.7,0-1.3,0.1-1.7,0.4c-0.4,0.3-0.6,0.6-0.6,1.2c0,0.4,0.2,0.7,0.4,0.9c0.3,0.2,0.6,0.4,1,0.5c0.4,0.1,0.8,0.2,1.2,0.3
	c0.4,0.1,0.8,0.2,1.2,0.3c1.3,0.4,2.6,0.9,3.7,1.4c1.1,0.5,2.1,1.1,2.9,1.9s1.4,1.6,1.9,2.6c0.4,1,0.7,2.3,0.7,3.7
	c0,1.5-0.3,2.8-0.9,3.9c-0.6,1.2-1.4,2.1-2.4,2.9c-1,0.8-2.2,1.4-3.6,1.8c-1.4,0.4-2.9,0.6-4.5,0.6c-0.9,0-1.9-0.1-2.8-0.2
	c-0.9-0.2-1.9-0.4-2.8-0.8c-0.9-0.4-1.7-0.8-2.5-1.4c-0.8-0.6-1.5-1.3-2.1-2.1c-0.2-0.2-0.3-0.4-0.4-0.7c-0.1-0.2-0.1-0.5-0.1-0.7
	c0-0.2,0.1-0.4,0.1-0.6c0.1-0.2,0.2-0.3,0.4-0.5l2.9-2.9c0.4-0.3,0.7-0.4,0.9-0.3C397.6,40.9,398,41.1,398.4,41.5"/>
<polygon class="st0" points="46.1,41.8 50.9,46.6 59.4,38.2 46.1,24.9 32.9,38.2 41.3,46.6 "/>
<polygon class="st0" points="67.8,46.6 59.4,55.1 62.9,58.6 46.1,75.5 29.3,58.6 29.3,58.6 8.4,37.8 0,46.2 46.1,92.3 79.8,58.6 "/>
<polygon class="st1" points="46.1,0.9 12.4,34.6 20.8,43 29.3,34.6 43,20.9 46.1,17.8 62.9,34.6 59.4,38.2 50.9,46.6 46.1,51.4 
	41.3,46.6 32.9,38.2 32.9,55.1 46.1,68.3 59.4,55.1 67.8,46.6 79.8,34.6 "/>
<g>
	<path class="st2" d="M103.7,64.5h9.1v1.9h-3.5v9.3h-2.2v-9.3h-3.5V64.5z"/>
	<path class="st2" d="M122.1,75.7v-1c-0.3,0.4-0.7,0.7-1.2,0.8c-0.5,0.2-1,0.3-1.6,0.3c-0.6,0-1.1-0.1-1.6-0.3c-0.5-0.2-0.8-0.5-1-1
		c-0.2-0.4-0.4-0.9-0.4-1.4c0-0.8,0.3-1.4,0.8-1.9c0.6-0.5,1.4-0.7,2.4-0.7h2.5v-0.2c0-0.5-0.2-0.9-0.5-1.2s-0.8-0.4-1.4-0.4
		c-0.8,0-1.7,0.3-2.5,0.8l-0.8-1.4c0.7-0.4,1.3-0.6,1.8-0.8c0.5-0.2,1.2-0.2,1.9-0.2c1.1,0,2,0.3,2.6,0.8c0.6,0.5,0.9,1.3,0.9,2.2
		l0,5.6H122.1z M121.3,73.7c0.4-0.3,0.7-0.6,0.7-1v-0.8h-2.2c-0.6,0-1,0.1-1.2,0.2c-0.3,0.2-0.4,0.4-0.4,0.8c0,0.4,0.1,0.7,0.4,0.9
		c0.3,0.2,0.6,0.3,1.1,0.3C120.4,74.2,120.9,74,121.3,73.7z"/>
	<path class="st2" d="M137.1,67.1v7.7c0,0.8-0.2,1.5-0.6,2.1c-0.4,0.6-0.9,1.1-1.6,1.4c-0.7,0.3-1.5,0.5-2.4,0.5
		c-1.3,0-2.5-0.4-3.6-1.1l0.8-1.5c0.8,0.6,1.7,0.9,2.7,0.9c0.8,0,1.4-0.2,1.8-0.6c0.5-0.4,0.7-0.9,0.7-1.6v-1
		c-0.3,0.4-0.7,0.8-1.1,1s-1,0.3-1.6,0.3c-0.7,0-1.4-0.2-2-0.5c-0.6-0.3-1-0.8-1.3-1.5c-0.3-0.6-0.5-1.3-0.5-2.2
		c0-0.8,0.2-1.5,0.5-2.1c0.3-0.6,0.8-1.1,1.3-1.4s1.2-0.5,2-0.5c0.6,0,1.1,0.1,1.6,0.4c0.5,0.2,0.8,0.6,1.1,1v-1.3H137.1z
		 M134.4,72.9c0.4-0.5,0.6-1,0.6-1.8c0-0.7-0.2-1.3-0.6-1.8c-0.4-0.5-1-0.7-1.6-0.7s-1.2,0.2-1.6,0.7s-0.6,1-0.6,1.8
		c0,0.7,0.2,1.3,0.6,1.8c0.4,0.5,1,0.7,1.6,0.7S134,73.4,134.4,72.9z"/>
	<path class="st2" d="M151.8,78.3c-0.5,0.4-1.1,0.5-1.8,0.5c-0.4,0-0.8-0.1-1.1-0.2c-0.3-0.1-0.7-0.3-1-0.6l0.9-1.6
		c0.2,0.1,0.4,0.3,0.6,0.3c0.2,0.1,0.4,0.1,0.5,0.1c0.6,0,1-0.3,1.2-0.9l0.3-0.6l-3.5-8.4h2.2l2.4,6.2l2.2-6.2h2.1l-3.8,9.6
		C152.7,77.4,152.3,78,151.8,78.3z"/>
	<path class="st2" d="M166.6,67.6c0.7,0.4,1.2,0.9,1.6,1.5c0.4,0.7,0.6,1.4,0.6,2.3c0,0.9-0.2,1.6-0.6,2.3c-0.4,0.7-0.9,1.2-1.6,1.5
		s-1.5,0.5-2.3,0.5c-0.9,0-1.7-0.2-2.4-0.5s-1.2-0.9-1.6-1.5c-0.4-0.7-0.6-1.4-0.6-2.3c0-0.9,0.2-1.6,0.6-2.3
		c0.4-0.7,0.9-1.2,1.6-1.5c0.7-0.4,1.5-0.5,2.4-0.5C165.2,67,166,67.2,166.6,67.6z M162.5,69.5c-0.4,0.5-0.7,1.1-0.7,1.9
		s0.2,1.4,0.7,1.9c0.4,0.5,1,0.7,1.8,0.7c0.7,0,1.3-0.2,1.7-0.7c0.4-0.5,0.7-1.1,0.7-1.9s-0.2-1.4-0.7-1.9c-0.4-0.5-1-0.7-1.7-0.7
		C163.6,68.8,163,69.1,162.5,69.5z"/>
	<path class="st2" d="M181.4,67.1v8.6h-2.1v-1.6c-0.6,1.1-1.6,1.7-3,1.7c-1,0-1.7-0.3-2.3-0.9c-0.6-0.6-0.8-1.4-0.8-2.4v-5.4h2.1
		v4.8c0,0.6,0.2,1.1,0.5,1.4s0.8,0.5,1.4,0.5c0.7,0,1.2-0.2,1.6-0.7c0.4-0.5,0.6-1,0.6-1.7v-4.2H181.4z"/>
	<path class="st2" d="M190.1,67.5c0.5-0.3,1.1-0.4,1.7-0.5v2c-0.9-0.1-1.6,0.2-2.1,0.6c-0.5,0.5-0.8,1.1-0.8,1.9v4.1h-2.1v-8.6h2.1
		v1.6C189.2,68.2,189.6,67.8,190.1,67.5z"/>
	<path class="st2" d="M203.1,63.8h2.1v11.9h-2.1V63.8z"/>
	<path class="st2" d="M217.3,68.2c0.7,0.8,1,1.9,1,3.3c0,0.3,0,0.5,0,0.6H212c0.1,0.6,0.4,1.1,0.9,1.4c0.4,0.3,1,0.5,1.6,0.5
		c0.4,0,0.9-0.1,1.3-0.2c0.4-0.2,0.7-0.4,1-0.7l1.1,1.2c-0.4,0.5-0.9,0.8-1.6,1.1c-0.6,0.3-1.3,0.4-2,0.4c-0.9,0-1.6-0.2-2.3-0.5
		c-0.7-0.4-1.2-0.9-1.5-1.5c-0.4-0.7-0.5-1.4-0.5-2.3s0.2-1.6,0.6-2.3c0.4-0.7,0.9-1.2,1.5-1.5c0.7-0.4,1.4-0.6,2.3-0.6
		C215.6,67,216.7,67.4,217.3,68.2z M216.5,70.7c0-0.6-0.2-1.1-0.6-1.5c-0.4-0.4-0.9-0.6-1.6-0.6c-0.6,0-1.1,0.2-1.5,0.6
		c-0.4,0.4-0.7,0.9-0.8,1.5H216.5z"/>
	<path class="st2" d="M230.9,67.1v7.7c0,0.8-0.2,1.5-0.6,2.1c-0.4,0.6-0.9,1.1-1.6,1.4c-0.7,0.3-1.5,0.5-2.4,0.5
		c-1.3,0-2.5-0.4-3.6-1.1l0.8-1.5c0.8,0.6,1.7,0.9,2.7,0.9c0.8,0,1.4-0.2,1.8-0.6c0.5-0.4,0.7-0.9,0.7-1.6v-1
		c-0.3,0.4-0.7,0.8-1.1,1s-1,0.3-1.6,0.3c-0.7,0-1.4-0.2-2-0.5c-0.6-0.3-1-0.8-1.3-1.5c-0.3-0.6-0.5-1.3-0.5-2.2
		c0-0.8,0.2-1.5,0.5-2.1c0.3-0.6,0.8-1.1,1.3-1.4s1.2-0.5,2-0.5c0.6,0,1.1,0.1,1.6,0.4c0.5,0.2,0.8,0.6,1.1,1v-1.3H230.9z
		 M228.2,72.9c0.4-0.5,0.6-1,0.6-1.8c0-0.7-0.2-1.3-0.6-1.8c-0.4-0.5-1-0.7-1.6-0.7c-0.7,0-1.2,0.2-1.6,0.7c-0.4,0.5-0.6,1-0.6,1.8
		c0,0.7,0.2,1.3,0.6,1.8c0.4,0.5,1,0.7,1.6,0.7C227.2,73.6,227.7,73.4,228.2,72.9z"/>
	<path class="st2" d="M241.3,75.7v-1c-0.3,0.4-0.7,0.7-1.2,0.8c-0.5,0.2-1,0.3-1.6,0.3c-0.6,0-1.1-0.1-1.6-0.3c-0.5-0.2-0.8-0.5-1-1
		c-0.2-0.4-0.4-0.9-0.4-1.4c0-0.8,0.3-1.4,0.8-1.9c0.6-0.5,1.4-0.7,2.4-0.7h2.5v-0.2c0-0.5-0.2-0.9-0.5-1.2s-0.8-0.4-1.4-0.4
		c-0.8,0-1.7,0.3-2.5,0.8l-0.8-1.4c0.7-0.4,1.3-0.6,1.8-0.8c0.5-0.2,1.2-0.2,1.9-0.2c1.1,0,2,0.3,2.6,0.8s0.9,1.3,0.9,2.2l0,5.6
		H241.3z M240.5,73.7c0.4-0.3,0.7-0.6,0.7-1v-0.8h-2.2c-0.6,0-1,0.1-1.2,0.2c-0.3,0.2-0.4,0.4-0.4,0.8c0,0.4,0.1,0.7,0.4,0.9
		c0.3,0.2,0.6,0.3,1.1,0.3C239.6,74.2,240.1,74,240.5,73.7z"/>
	<path class="st2" d="M248.6,63.8h2.1v11.9h-2.1V63.8z"/>
	<path class="st2" d="M261.7,67.1l2.1,0l2.1,6.5l2-6.5h2.1l2.1,6.5l2-6.5h2.1l-3.1,8.6h-2.1l-2-6l-2,6h-2.1L261.7,67.1z"/>
	<path class="st2" d="M286.2,67.6c0.7,0.4,1.2,0.9,1.6,1.5c0.4,0.7,0.6,1.4,0.6,2.3c0,0.9-0.2,1.6-0.6,2.3c-0.4,0.7-0.9,1.2-1.6,1.5
		s-1.5,0.5-2.3,0.5c-0.9,0-1.7-0.2-2.4-0.5s-1.2-0.9-1.6-1.5c-0.4-0.7-0.6-1.4-0.6-2.3c0-0.9,0.2-1.6,0.6-2.3
		c0.4-0.7,0.9-1.2,1.6-1.5c0.7-0.4,1.5-0.5,2.4-0.5C284.7,67,285.5,67.2,286.2,67.6z M282.1,69.5c-0.4,0.5-0.7,1.1-0.7,1.9
		s0.2,1.4,0.7,1.9c0.4,0.5,1,0.7,1.8,0.7c0.7,0,1.3-0.2,1.7-0.7c0.4-0.5,0.7-1.1,0.7-1.9s-0.2-1.4-0.7-1.9c-0.4-0.5-1-0.7-1.7-0.7
		C283.1,68.8,282.5,69.1,282.1,69.5z"/>
	<path class="st2" d="M296.3,67.5c0.5-0.3,1.1-0.4,1.7-0.5v2c-0.9-0.1-1.6,0.2-2.1,0.6c-0.5,0.5-0.8,1.1-0.8,1.9v4.1H293v-8.6h2.1
		v1.6C295.4,68.2,295.8,67.8,296.3,67.5z"/>
	<path class="st2" d="M305.6,67.5c0.5-0.3,1.1-0.4,1.7-0.5v2c-0.9-0.1-1.6,0.2-2.1,0.6c-0.5,0.5-0.8,1.1-0.8,1.9v4.1h-2.1v-8.6h2.1
		v1.6C304.7,68.2,305.1,67.8,305.6,67.5z"/>
	<path class="st2" d="M313.5,63.8c0.2,0.2,0.3,0.5,0.3,0.9c0,0.4-0.1,0.6-0.3,0.9c-0.2,0.2-0.5,0.4-0.8,0.4c-0.3,0-0.6-0.1-0.8-0.4
		c-0.2-0.2-0.3-0.5-0.3-0.9c0-0.4,0.1-0.7,0.3-0.9c0.2-0.2,0.5-0.4,0.8-0.4C313,63.4,313.3,63.5,313.5,63.8z M311.7,67.1h2.1v8.6
		h-2.1V67.1z"/>
	<path class="st2" d="M325.9,68.2c0.7,0.8,1,1.9,1,3.3c0,0.3,0,0.5,0,0.6h-6.3c0.1,0.6,0.4,1.1,0.9,1.4c0.4,0.3,1,0.5,1.6,0.5
		c0.4,0,0.9-0.1,1.3-0.2c0.4-0.2,0.7-0.4,1-0.7l1.1,1.2c-0.4,0.5-0.9,0.8-1.6,1.1c-0.6,0.3-1.3,0.4-2,0.4c-0.9,0-1.6-0.2-2.3-0.5
		c-0.7-0.4-1.2-0.9-1.5-1.5c-0.4-0.7-0.5-1.4-0.5-2.3s0.2-1.6,0.6-2.3c0.4-0.7,0.9-1.2,1.5-1.5c0.7-0.4,1.4-0.6,2.3-0.6
		C324.1,67,325.2,67.4,325.9,68.2z M325,70.7c0-0.6-0.2-1.1-0.6-1.5c-0.4-0.4-0.9-0.6-1.6-0.6c-0.6,0-1.1,0.2-1.5,0.6
		c-0.4,0.4-0.7,0.9-0.8,1.5H325z"/>
	<path class="st2" d="M335.3,68.9c-0.4-0.1-0.9-0.2-1.2-0.2c-0.4,0-0.6,0.1-0.8,0.2s-0.3,0.3-0.3,0.6c0,0.3,0.1,0.5,0.4,0.6
		c0.3,0.1,0.7,0.3,1.2,0.5c0.6,0.2,1.1,0.4,1.5,0.5c0.4,0.2,0.7,0.4,1,0.8c0.3,0.3,0.4,0.8,0.4,1.4c0,0.8-0.3,1.5-1,1.9
		c-0.6,0.4-1.4,0.7-2.4,0.7c-0.7,0-1.3-0.1-1.9-0.3c-0.6-0.2-1.2-0.5-1.6-0.9l0.7-1.5c0.4,0.3,0.8,0.6,1.4,0.8s1,0.3,1.5,0.3
		c0.4,0,0.7-0.1,0.9-0.2c0.2-0.1,0.3-0.3,0.3-0.6c0-0.3-0.1-0.5-0.4-0.7c-0.3-0.1-0.7-0.3-1.3-0.5c-0.6-0.2-1-0.3-1.4-0.5
		c-0.4-0.2-0.7-0.4-0.9-0.8c-0.3-0.3-0.4-0.8-0.4-1.3c0-0.8,0.3-1.5,0.9-1.9c0.6-0.4,1.4-0.7,2.3-0.7c0.6,0,1.1,0.1,1.7,0.2
		c0.5,0.2,1,0.4,1.5,0.7l-0.8,1.5C336.2,69.2,335.8,69,335.3,68.9z"/>
</g>
</svg>
