<?xml version="1.0" encoding="utf-8"?>
<!-- Generator: Adobe Illustrator 19.2.0, SVG Export Plug-In . SVG Version: 6.00 Build 0)  -->
<svg version="1.1" id="Layer_1" xmlns="http://www.w3.org/2000/svg" xmlns:xlink="http://www.w3.org/1999/xlink" x="0px" y="0px"
	 viewBox="0 0 415.1 91.4" style="enable-background:new 0 0 415.1 91.4;" xml:space="preserve">
<style type="text/css">
	.st0{fill:#2A4EA2;}
	.st1{fill:#75C043;}
	.st2{fill:#808285;}
</style>
<path class="st0" d="M103.6,17.4c0-0.3,0.1-0.5,0.3-0.7c0.2-0.2,0.4-0.3,0.7-0.3h6.6c0.3,0,0.5,0.1,0.7,0.3c0.2,0.2,0.3,0.4,0.3,0.7
	v24.1h12.2c0.3,0,0.5,0.1,0.7,0.3c0.2,0.2,0.3,0.4,0.3,0.7v5.8c0,0.3-0.1,0.5-0.3,0.7c-0.2,0.2-0.4,0.3-0.7,0.3h-19.8
	c-0.7,0-1-0.3-1-1V17.4z"/>
<path class="st0" d="M156.8,47.8c0,0.3,0,0.5-0.1,0.7c-0.1,0.2-0.2,0.4-0.4,0.5c-0.2,0.2-0.4,0.3-0.6,0.3c-0.2,0-0.4,0.1-0.6,0.1
	h-4.4c-0.3,0-0.6,0-0.8-0.1c-0.2-0.1-0.3-0.2-0.5-0.3c-0.1-0.1-0.2-0.3-0.3-0.5c-0.1-0.2-0.2-0.4-0.3-0.7l-0.3-1
	c-0.4,0.4-0.9,0.8-1.4,1.2c-0.5,0.4-1.1,0.7-1.7,1c-0.6,0.3-1.3,0.5-2,0.7c-0.7,0.2-1.4,0.3-2.2,0.3c-1.3,0-2.6-0.2-3.9-0.5
	c-1.2-0.3-2.4-0.8-3.5-1.5c-1.1-0.6-2-1.4-2.9-2.3c-0.9-0.9-1.6-1.9-2.3-2.9c-0.6-1.1-1.1-2.2-1.5-3.5c-0.3-1.2-0.5-2.6-0.5-3.9
	c0-2.1,0.4-4,1.1-5.7c0.8-1.8,1.8-3.3,3.1-4.6c1.3-1.3,2.8-2.3,4.6-3.1c1.8-0.7,3.6-1.1,5.7-1.1c0.9,0,1.8,0.1,2.6,0.3
	c0.8,0.2,1.5,0.5,2.2,0.8c0.7,0.4,1.3,0.8,1.8,1.3c0.5,0.5,1,1,1.4,1.6l0.6-2c0.1-0.4,0.3-0.7,0.4-0.9c0.1-0.2,0.2-0.4,0.3-0.5
	c0.1-0.1,0.2-0.2,0.4-0.2c0.2,0,0.4-0.1,0.7-0.1h3.3c0.2,0,0.4,0,0.6,0.1c0.2,0,0.4,0.1,0.6,0.3c0.2,0.2,0.4,0.3,0.4,0.6
	c0.1,0.2,0.1,0.4,0.1,0.7V47.8z M135,35.3c0,1,0.2,1.9,0.5,2.7c0.3,0.9,0.7,1.6,1.3,2.2c0.6,0.6,1.2,1.1,2,1.5
	c0.8,0.4,1.7,0.5,2.6,0.5c1,0,1.9-0.2,2.8-0.5c0.8-0.4,1.6-0.9,2.2-1.5c0.6-0.6,1.1-1.4,1.5-2.2c0.4-0.9,0.5-1.8,0.5-2.7
	c0-0.9-0.2-1.8-0.5-2.7c-0.4-0.9-0.8-1.6-1.5-2.3c-0.6-0.7-1.4-1.2-2.2-1.5c-0.9-0.4-1.8-0.6-2.8-0.6c-1,0-1.8,0.2-2.6,0.6
	c-0.8,0.4-1.5,0.9-2,1.5c-0.6,0.7-1,1.4-1.3,2.3C135.1,33.5,135,34.4,135,35.3"/>
<path class="st0" d="M158.6,23.4c-0.3-0.6-0.4-1.1-0.2-1.6c0.2-0.4,0.6-0.6,1.3-0.6h5.7c0.4,0,0.7,0.1,1,0.3
	c0.3,0.2,0.5,0.5,0.6,0.9c0.3,0.8,0.5,1.7,0.8,2.6s0.6,2,1,3c0.3,1,0.7,2,1,3c0.3,1,0.6,1.9,0.9,2.7c0.3,0.8,0.5,1.6,0.7,2.2
	c0.2,0.6,0.4,1.1,0.5,1.3l4.7-14.8c0.2-0.5,0.4-0.8,0.7-1c0.2-0.2,0.6-0.2,1-0.2h5.3c0.4,0,0.8,0.1,1,0.2c0.2,0.1,0.4,0.2,0.4,0.4
	c0.1,0.2,0.1,0.4,0,0.6c0,0.2-0.1,0.5-0.2,0.7l-2.4,6c0.1,0.3,0.3,0.7,0.6,1.3c0.3,0.6,0.6,1.3,1,2c0.4,0.8,0.8,1.6,1.2,2.4
	c0.4,0.8,0.7,1.6,1,2.3l5.4-14.7c0.2-0.5,0.4-0.8,0.6-1c0.2-0.2,0.5-0.2,0.9-0.2h4.9c0.7,0,1.2,0.1,1.5,0.4c0.3,0.3,0.3,0.8,0,1.5
	l-10.4,25.3c-0.1,0.3-0.3,0.5-0.6,0.7c-0.3,0.2-0.7,0.3-1.2,0.3h-2.3c-0.6,0-1-0.1-1.3-0.3c-0.3-0.2-0.5-0.4-0.6-0.7l-4.1-10.1
	l-4.1,10.1c-0.2,0.3-0.4,0.5-0.6,0.7c-0.2,0.2-0.6,0.3-1,0.3h-2.6c-0.6,0-1-0.1-1.3-0.3c-0.2-0.2-0.4-0.4-0.5-0.7L158.6,23.4z"/>
<path class="st0" d="M214.4,17.5c0-0.3,0.1-0.6,0.3-0.7c0.2-0.2,0.4-0.3,0.7-0.3h14.7c1.3,0,2.5,0.2,3.7,0.7c1.2,0.5,2.2,1.2,3,2
	c0.9,0.9,1.5,1.9,2.1,3c0.5,1.2,0.8,2.4,0.8,3.7c0,1.1-0.2,2.1-0.5,3.1c-0.3,1-0.8,1.8-1.5,2.6c1.1,1,1.9,2.1,2.5,3.5
	c0.6,1.3,0.9,2.8,0.9,4.3c0,1.3-0.3,2.6-0.8,3.8s-1.2,2.3-2.1,3.2c-0.9,0.9-1.9,1.6-3.1,2.2c-1.2,0.5-2.4,0.8-3.7,0.8h-16
	c-0.3,0-0.5-0.1-0.7-0.2c-0.2-0.2-0.3-0.4-0.3-0.7V17.5z M231.1,26.2c0-0.4-0.1-0.9-0.2-1.2c-0.2-0.4-0.4-0.7-0.7-1
	c-0.3-0.3-0.7-0.5-1.1-0.7c-0.4-0.2-0.9-0.3-1.4-0.3h-4.8v6.4h4.7c0.5,0,1-0.1,1.4-0.2c0.4-0.2,0.8-0.4,1.1-0.7
	c0.3-0.3,0.5-0.6,0.7-1C231,27.1,231.1,26.7,231.1,26.2 M232.2,39.1c0-0.4-0.1-0.9-0.3-1.3c-0.2-0.4-0.4-0.8-0.7-1.2
	c-0.3-0.3-0.7-0.6-1.1-0.9c-0.4-0.2-0.9-0.3-1.4-0.3h-5.9v7.4h5.9c0.5,0,0.9-0.1,1.4-0.3c0.4-0.2,0.8-0.5,1.1-0.8
	c0.3-0.3,0.6-0.7,0.7-1.2C232.2,40,232.2,39.6,232.2,39.1"/>
<path class="st0" d="M243,22.9c0-0.3,0.1-0.5,0.2-0.7c0.1-0.2,0.2-0.4,0.4-0.5c0.2-0.1,0.4-0.2,0.6-0.3c0.2-0.1,0.4-0.1,0.6-0.1h3.4
	c0.4,0,0.7,0.1,0.9,0.3c0.2,0.2,0.4,0.5,0.6,0.8c0.2,0.3,0.3,0.7,0.4,1.1c0.1,0.4,0.3,0.8,0.4,1.2c0.4-0.5,0.9-1,1.3-1.4
	c0.4-0.5,0.9-0.9,1.4-1.3c0.5-0.4,1.1-0.7,1.7-0.9c0.6-0.2,1.3-0.3,2.1-0.3c0.8,0,1.5,0.1,2.1,0.2c0.6,0.1,1.2,0.3,1.8,0.5
	c0.6,0.2,1.1,0.5,1.7,0.9c0.6,0.4,1.2,0.8,1.8,1.2c0.6,0.4,1,0.8,1,1.3c0,0.3-0.1,0.7-0.4,1.1l-2,3.4c-0.4,0.6-0.9,0.9-1.5,0.9
	c-0.3,0-0.6-0.1-1-0.2c-0.6-0.6-1.3-1.1-1.9-1.4c-0.7-0.3-1.4-0.5-2.3-0.5c-0.6,0-1.1,0.1-1.5,0.2c-0.4,0.2-0.8,0.4-1.2,0.7
	c-0.4,0.3-0.7,0.7-1,1.1c-0.3,0.4-0.6,0.9-0.9,1.4v16.1c0,0.6-0.1,1-0.4,1.3c-0.3,0.3-0.7,0.4-1.4,0.4h-5c-1.2,0-1.7-0.6-1.7-1.7
	V22.9z"/>
<path class="st0" d="M265.2,35.3c0-1.4,0.2-2.7,0.5-3.9c0.3-1.3,0.8-2.4,1.5-3.5c0.6-1.1,1.4-2,2.3-2.9c0.9-0.9,1.9-1.6,2.9-2.3
	c1.1-0.6,2.2-1.1,3.5-1.4c1.3-0.3,2.6-0.5,3.9-0.5c2,0,3.9,0.4,5.7,1.1c1.8,0.7,3.3,1.8,4.6,3.1c1.3,1.3,2.3,2.8,3.1,4.6
	c0.8,1.8,1.1,3.7,1.1,5.7c0,1.4-0.2,2.7-0.5,3.9c-0.3,1.3-0.8,2.4-1.5,3.5c-0.6,1.1-1.4,2.1-2.3,2.9c-0.9,0.9-1.9,1.6-2.9,2.3
	c-1.1,0.6-2.2,1.1-3.5,1.5c-1.2,0.3-2.5,0.5-3.9,0.5c-1.4,0-2.7-0.2-3.9-0.5c-1.3-0.3-2.4-0.8-3.5-1.5c-1.1-0.6-2.1-1.4-2.9-2.3
	c-0.9-0.9-1.6-1.9-2.3-2.9c-0.6-1.1-1.1-2.2-1.5-3.5C265.4,38,265.2,36.7,265.2,35.3 M273.3,35.3c0,1,0.2,1.9,0.5,2.7
	c0.3,0.9,0.7,1.6,1.3,2.2c0.6,0.6,1.2,1.1,2,1.5c0.8,0.4,1.7,0.5,2.7,0.5c1,0,1.8-0.2,2.6-0.5c0.8-0.4,1.4-0.9,2-1.5
	c0.5-0.6,1-1.4,1.2-2.2c0.3-0.9,0.4-1.8,0.4-2.7c0-0.9-0.1-1.8-0.4-2.7c-0.3-0.9-0.7-1.6-1.2-2.3c-0.5-0.7-1.2-1.2-2-1.5
	c-0.8-0.4-1.6-0.6-2.6-0.6c-1,0-1.9,0.2-2.7,0.6c-0.8,0.4-1.5,0.9-2,1.5c-0.6,0.7-1,1.4-1.3,2.3C273.5,33.5,273.3,34.4,273.3,35.3"
	/>
<path class="st0" d="M297,16.8c0-0.5,0.2-0.8,0.5-1c0.3-0.2,0.7-0.4,1.3-0.7l5-1.8c0.1,0,0.1,0,0.2,0h0.2c0.5,0,0.9,0.2,1.1,0.5
	c0.2,0.3,0.3,0.7,0.3,1.3l0,6.1h3c0.5,0,0.9,0.1,1.2,0.4c0.3,0.3,0.4,0.7,0.4,1.3v4.3c0,0.6-0.1,1.1-0.4,1.4
	c-0.3,0.3-0.7,0.4-1.2,0.4h-3l0,18.7c0,0.6-0.2,1-0.5,1.3c-0.3,0.3-0.8,0.4-1.4,0.4h-5c-1.1,0-1.7-0.6-1.7-1.7l0-18.7h-2.3
	c-1.1,0-1.7-0.6-1.7-1.8v-4.3c0-1.1,0.6-1.7,1.7-1.7h2.3L297,16.8z"/>
<path class="st0" d="M321.1,24.2c0.3-0.4,0.7-0.8,1.2-1.2c0.5-0.4,1.1-0.8,1.7-1.1c0.6-0.3,1.4-0.6,2.1-0.8c0.8-0.2,1.6-0.3,2.5-0.3
	c1.7,0,3.1,0.3,4.4,1c1.2,0.6,2.3,1.5,3.1,2.7c0.8,1.1,1.4,2.4,1.8,3.9c0.4,1.5,0.6,3.1,0.6,4.8v14.5c0,0.6-0.1,1-0.4,1.3
	c-0.2,0.3-0.6,0.4-1.2,0.4h-5.1c-0.6,0-1.1-0.1-1.3-0.3c-0.2-0.2-0.4-0.6-0.4-1.3V33.2c0-0.6-0.1-1.2-0.4-1.8c-0.2-0.5-0.6-1-1-1.4
	c-0.4-0.4-0.9-0.7-1.5-1c-0.6-0.2-1.1-0.3-1.8-0.3c-0.5,0-1.1,0.1-1.6,0.3c-0.5,0.2-1,0.5-1.4,0.9c-0.4,0.4-0.7,0.9-1,1.4
	c-0.3,0.5-0.4,1.2-0.5,1.8v14.6c0,0.3,0,0.5-0.1,0.8c-0.1,0.3-0.2,0.4-0.4,0.6c-0.2,0.1-0.4,0.2-0.5,0.2c-0.2,0-0.4,0.1-0.6,0.1h-5
	c-0.6,0-1.1-0.2-1.4-0.5c-0.3-0.3-0.4-0.7-0.4-1.2V29.6v-0.2v-6.6v-0.1v-8.2c0-0.5,0.1-0.9,0.4-1.2c0.3-0.3,0.7-0.5,1.4-0.5h5
	c0.3,0,0.7,0.1,1.1,0.4c0.2,0.1,0.3,0.3,0.4,0.6c0.1,0.3,0.1,0.5,0.1,0.7V24.2z"/>
<path class="st0" d="M365.6,46c-1.3,1.2-2.8,2.1-4.4,2.8c-1.6,0.7-3.4,1-5.2,1c-2,0-3.9-0.4-5.7-1.1c-1.8-0.7-3.4-1.8-4.8-3.1
	c-1.4-1.3-2.4-2.9-3.2-4.6c-0.8-1.8-1.2-3.7-1.2-5.8c0-1.3,0.2-2.6,0.5-3.8c0.3-1.2,0.8-2.4,1.4-3.4c0.6-1.1,1.3-2,2.1-2.9
	c0.8-0.9,1.8-1.7,2.8-2.3c1-0.6,2.2-1.1,3.4-1.5c1.2-0.4,2.5-0.5,3.8-0.5c1.2,0,2.4,0.2,3.6,0.5c1.2,0.3,2.2,0.8,3.3,1.4
	c1,0.6,1.9,1.3,2.8,2.1c0.8,0.8,1.6,1.7,2.2,2.7c0.6,1,1.1,2,1.4,3.2c0.3,1.1,0.5,2.3,0.5,3.5c0,0.8,0,1.4,0,1.9
	c0,0.5-0.1,0.9-0.3,1.2c-0.2,0.3-0.6,0.5-1,0.6c-0.5,0.1-1.2,0.2-2.1,0.2h-16c0.1,0.9,0.4,1.7,0.9,2.4c0.5,0.6,1,1.1,1.6,1.5
	c0.6,0.4,1.2,0.6,1.9,0.8c0.7,0.2,1.3,0.2,1.9,0.2c0.5,0,1.1-0.1,1.6-0.2c0.6-0.1,1.1-0.3,1.6-0.4c0.5-0.2,1-0.4,1.4-0.6
	c0.4-0.2,0.8-0.5,1.1-0.8c0.2-0.2,0.4-0.3,0.6-0.4c0.2-0.1,0.4-0.1,0.5-0.1s0.4,0.1,0.6,0.2c0.2,0.1,0.4,0.3,0.7,0.6l2.4,2.7
	c0.2,0.2,0.3,0.4,0.3,0.5c0,0.2,0.1,0.3,0.1,0.5c0,0.3-0.1,0.6-0.2,0.8C366,45.7,365.8,45.9,365.6,46 M354.9,27.5
	c-0.6,0-1.1,0.1-1.7,0.3c-0.5,0.2-1,0.5-1.5,0.9c-0.5,0.4-0.9,0.8-1.3,1.3c-0.4,0.5-0.7,1-0.9,1.5h11.3c-0.3-0.6-0.6-1.1-1-1.6
	c-0.4-0.5-0.8-0.9-1.2-1.3c-0.5-0.4-1-0.7-1.6-0.9C356.4,27.6,355.7,27.5,354.9,27.5"/>
<path class="st0" d="M371.6,22.9c0-0.3,0.1-0.5,0.2-0.7c0.1-0.2,0.2-0.4,0.4-0.5s0.4-0.2,0.6-0.3c0.2-0.1,0.4-0.1,0.6-0.1h3.4
	c0.4,0,0.7,0.1,0.9,0.3c0.2,0.2,0.4,0.5,0.6,0.8c0.2,0.3,0.3,0.7,0.4,1.1c0.1,0.4,0.3,0.8,0.4,1.2c0.4-0.5,0.9-1,1.3-1.4
	c0.4-0.5,0.9-0.9,1.4-1.3c0.5-0.4,1.1-0.7,1.7-0.9c0.6-0.2,1.3-0.3,2.1-0.3c0.8,0,1.5,0.1,2.1,0.2c0.6,0.1,1.2,0.3,1.8,0.5
	c0.6,0.2,1.1,0.5,1.7,0.9c0.6,0.4,1.2,0.8,1.8,1.2c0.6,0.4,1,0.8,1,1.3c0,0.3-0.1,0.7-0.4,1.1l-2,3.4c-0.4,0.6-0.9,0.9-1.5,0.9
	c-0.3,0-0.6-0.1-1-0.2c-0.6-0.6-1.3-1.1-1.9-1.4c-0.7-0.3-1.4-0.5-2.3-0.5c-0.6,0-1.1,0.1-1.5,0.2c-0.4,0.2-0.8,0.4-1.2,0.7
	s-0.7,0.7-1,1.1c-0.3,0.4-0.6,0.9-0.9,1.4v16.1c0,0.6-0.1,1-0.4,1.3c-0.3,0.3-0.7,0.4-1.4,0.4h-5c-1.2,0-1.7-0.6-1.7-1.7V22.9z"/>
<path class="st0" d="M398.4,40.6c0.4,0.4,0.8,0.7,1.3,1c0.5,0.3,0.9,0.5,1.3,0.7c0.4,0.2,0.8,0.3,1.1,0.4c0.3,0.1,0.5,0.1,0.7,0.1
	c0.3,0,0.6,0,1.1,0c0.4,0,0.9-0.1,1.3-0.2c0.4-0.1,0.7-0.3,1-0.5c0.3-0.3,0.4-0.6,0.4-1.1c0-0.4-0.1-0.7-0.2-1
	c-0.2-0.2-0.4-0.5-0.7-0.6c-0.3-0.2-0.7-0.3-1.1-0.5c-0.4-0.1-1-0.3-1.5-0.5c-1.8-0.5-3.2-1-4.4-1.7c-1.2-0.7-2.1-1.4-2.7-2.2
	c-0.7-0.8-1.1-1.7-1.4-2.7c-0.3-0.9-0.4-1.9-0.4-3c0-1.2,0.2-2.3,0.7-3.4c0.5-1,1.2-1.9,2.1-2.6c0.9-0.7,2-1.3,3.2-1.7
	c1.3-0.4,2.7-0.6,4.2-0.6c0.9,0,1.8,0.1,2.6,0.2c0.8,0.2,1.6,0.4,2.3,0.7c0.7,0.3,1.5,0.8,2.2,1.3c0.7,0.5,1.4,1.1,2.1,1.9
	c0.3,0.3,0.4,0.6,0.4,0.8c0,0.3-0.2,0.5-0.5,0.8c-0.6,0.5-1.1,0.9-1.7,1.4c-0.5,0.5-1.1,1-1.6,1.5c-0.2,0.1-0.4,0.2-0.5,0.3
	c-0.2,0-0.3,0-0.5,0c-0.2,0-0.3-0.1-0.5-0.2c-0.1-0.1-0.3-0.2-0.4-0.4c-0.5-0.6-1.1-1-1.8-1.2c-0.7-0.2-1.3-0.3-1.9-0.3
	c-0.7,0-1.3,0.1-1.7,0.4c-0.4,0.3-0.6,0.6-0.6,1.2c0,0.4,0.2,0.7,0.4,0.9c0.3,0.2,0.6,0.4,1,0.5c0.4,0.1,0.8,0.2,1.2,0.3
	c0.4,0.1,0.8,0.2,1.2,0.3c1.3,0.4,2.6,0.9,3.7,1.4c1.1,0.5,2.1,1.1,2.9,1.9s1.4,1.6,1.9,2.6c0.4,1,0.7,2.3,0.7,3.7
	c0,1.5-0.3,2.8-0.9,3.9c-0.6,1.2-1.4,2.1-2.4,2.9c-1,0.8-2.2,1.4-3.6,1.8c-1.4,0.4-2.9,0.6-4.5,0.6c-0.9,0-1.9-0.1-2.8-0.2
	c-0.9-0.2-1.9-0.4-2.8-0.8c-0.9-0.4-1.7-0.8-2.5-1.4c-0.8-0.6-1.5-1.3-2.1-2.1c-0.2-0.2-0.3-0.4-0.4-0.7c-0.1-0.2-0.1-0.5-0.1-0.7
	c0-0.2,0.1-0.4,0.1-0.6c0.1-0.2,0.2-0.3,0.4-0.5l2.9-2.9c0.4-0.3,0.7-0.4,0.9-0.3C397.6,40,398,40.2,398.4,40.6"/>
<polygon class="st0" points="46.1,40.9 50.9,45.7 59.4,37.3 46.1,24 32.9,37.3 41.3,45.7 "/>
<polygon class="st0" points="67.8,45.7 59.4,54.1 62.9,57.7 46.1,74.5 29.3,57.7 29.3,57.7 8.4,36.9 0,45.3 46.1,91.4 79.8,57.7 "/>
<polygon class="st1" points="46.1,0 12.4,33.7 20.8,42.1 29.3,33.7 43,19.9 46.1,16.9 62.9,33.7 59.4,37.3 50.9,45.7 46.1,50.5 
	41.3,45.7 32.9,37.3 32.9,54.1 46.1,67.4 59.4,54.1 67.8,45.7 79.8,33.7 "/>
<g>
	<path class="st2" d="M111.9,63.7v1.4h-3.1v9.6H107v-9.6H104v-1.4H111.9z"/>
	<path class="st2" d="M125.3,66.6c0.6,0.4,0.9,0.9,1.2,1.5v-2h1.8v8.6h-1.8v-2c-0.2,0.6-0.6,1.1-1.2,1.5c-0.6,0.4-1.2,0.6-2,0.6
		c-0.8,0-1.4-0.2-2-0.5c-0.6-0.4-1.1-0.9-1.4-1.5c-0.3-0.7-0.5-1.5-0.5-2.4c0-0.9,0.2-1.7,0.5-2.3s0.8-1.2,1.4-1.5
		c0.6-0.4,1.3-0.5,2-0.5C124.1,66,124.8,66.2,125.3,66.6z M122,68.3c-0.5,0.5-0.7,1.2-0.7,2.1s0.2,1.6,0.7,2.1s1.1,0.8,1.9,0.8
		c0.5,0,0.9-0.1,1.3-0.4c0.4-0.2,0.7-0.6,0.9-1c0.2-0.4,0.3-0.9,0.3-1.5c0-0.6-0.1-1.1-0.3-1.5c-0.2-0.4-0.5-0.8-0.9-1
		c-0.4-0.2-0.8-0.4-1.3-0.4C123.1,67.6,122.5,67.8,122,68.3z"/>
	<path class="st2" d="M142.5,66.6c0.6,0.4,0.9,0.9,1.2,1.5v-2h1.8v8.7c0,0.8-0.2,1.5-0.5,2.1c-0.3,0.6-0.8,1.1-1.4,1.5
		c-0.6,0.4-1.3,0.5-2.2,0.5c-1.2,0-2.2-0.3-2.9-0.9c-0.7-0.6-1.2-1.3-1.4-2.3h1.8c0.1,0.5,0.4,0.9,0.8,1.2c0.4,0.3,0.9,0.4,1.6,0.4
		c0.7,0,1.3-0.2,1.8-0.7c0.5-0.4,0.7-1.1,0.7-1.9v-2.1c-0.2,0.6-0.6,1.1-1.2,1.5c-0.6,0.4-1.2,0.6-2,0.6c-0.8,0-1.4-0.2-2-0.5
		c-0.6-0.4-1.1-0.9-1.4-1.5c-0.3-0.7-0.5-1.5-0.5-2.4c0-0.9,0.2-1.7,0.5-2.3s0.8-1.2,1.4-1.5c0.6-0.4,1.3-0.5,2-0.5
		C141.3,66,142,66.2,142.5,66.6z M139.2,68.3c-0.5,0.5-0.7,1.2-0.7,2.1s0.2,1.6,0.7,2.1s1.1,0.8,1.9,0.8c0.5,0,0.9-0.1,1.3-0.4
		c0.4-0.2,0.7-0.6,0.9-1c0.2-0.4,0.3-0.9,0.3-1.5c0-0.6-0.1-1.1-0.3-1.5c-0.2-0.4-0.5-0.8-0.9-1c-0.4-0.2-0.8-0.4-1.3-0.4
		C140.3,67.6,139.7,67.8,139.2,68.3z"/>
	<path class="st2" d="M165.6,66.1l2.6,6.3l2.4-6.3h2l-5.2,12.7h-2l1.9-4.3l-3.6-8.4H165.6z"/>
	<path class="st2" d="M186.6,66.6c0.7,0.4,1.2,0.9,1.6,1.5c0.4,0.7,0.6,1.4,0.6,2.3c0,0.9-0.2,1.7-0.6,2.4c-0.4,0.7-0.9,1.2-1.6,1.5
		c-0.7,0.4-1.4,0.5-2.3,0.5s-1.6-0.2-2.2-0.5c-0.7-0.4-1.2-0.9-1.6-1.5s-0.6-1.5-0.6-2.4c0-0.9,0.2-1.7,0.6-2.3s0.9-1.2,1.6-1.5
		c0.7-0.4,1.4-0.5,2.2-0.5S185.9,66.2,186.6,66.6z M183,67.9c-0.4,0.2-0.7,0.5-0.9,1s-0.4,1-0.4,1.6c0,0.6,0.1,1.2,0.4,1.6
		c0.2,0.4,0.5,0.7,0.9,1c0.4,0.2,0.8,0.3,1.3,0.3s0.9-0.1,1.3-0.3c0.4-0.2,0.7-0.5,0.9-1c0.2-0.4,0.4-1,0.4-1.6
		c0-0.6-0.1-1.2-0.4-1.6c-0.2-0.4-0.5-0.8-0.9-1c-0.4-0.2-0.8-0.3-1.3-0.3S183.4,67.7,183,67.9z"/>
	<path class="st2" d="M205,66.1v8.6h-1.8v-1.9c-0.2,0.6-0.6,1.1-1.1,1.5s-1.2,0.5-1.9,0.5c-1,0-1.8-0.3-2.4-1
		c-0.6-0.6-0.9-1.6-0.9-2.8v-5h1.8V71c0,0.8,0.2,1.4,0.6,1.8c0.4,0.4,0.9,0.6,1.6,0.6c0.7,0,1.3-0.2,1.7-0.7c0.4-0.5,0.6-1.1,0.6-2
		v-4.6H205z"/>
	<path class="st2" d="M216.8,66.5c0.5-0.3,1.2-0.5,1.9-0.5v1.9h-0.5c-0.8,0-1.4,0.2-1.9,0.6c-0.5,0.4-0.7,1-0.7,1.9v4.4h-1.8v-8.6
		h1.8v1.7C215.8,67.3,216.3,66.8,216.8,66.5z"/>
	<path class="st2" d="M238.7,63.2v11.6H237V63.2H238.7z"/>
	<path class="st2" d="M255.5,70.8h-6.6c0,0.9,0.3,1.5,0.7,2c0.5,0.4,1,0.6,1.7,0.6c0.6,0,1.1-0.2,1.5-0.5c0.4-0.3,0.7-0.7,0.8-1.2
		h1.9c-0.1,0.6-0.4,1.1-0.7,1.6c-0.4,0.5-0.8,0.8-1.4,1.1c-0.6,0.3-1.2,0.4-2,0.4c-0.8,0-1.6-0.2-2.2-0.5c-0.6-0.4-1.1-0.9-1.5-1.5
		c-0.4-0.7-0.5-1.5-0.5-2.4c0-0.9,0.2-1.7,0.5-2.3c0.4-0.7,0.9-1.2,1.5-1.5c0.6-0.4,1.4-0.5,2.2-0.5c0.8,0,1.6,0.2,2.2,0.5
		c0.6,0.3,1.1,0.8,1.5,1.4c0.3,0.6,0.5,1.3,0.5,2C255.5,70.3,255.5,70.6,255.5,70.8z M253.5,68.6c-0.2-0.4-0.5-0.7-0.9-0.8
		s-0.8-0.3-1.2-0.3c-0.7,0-1.3,0.2-1.8,0.6c-0.5,0.4-0.7,1.1-0.8,1.9h4.9C253.8,69.4,253.7,68.9,253.5,68.6z"/>
	<path class="st2" d="M269.4,66.6c0.6,0.4,0.9,0.9,1.2,1.5v-2h1.8v8.7c0,0.8-0.2,1.5-0.5,2.1s-0.8,1.1-1.4,1.5
		c-0.6,0.4-1.3,0.5-2.2,0.5c-1.2,0-2.2-0.3-2.9-0.9s-1.2-1.3-1.4-2.3h1.8c0.1,0.5,0.4,0.9,0.8,1.2s0.9,0.4,1.6,0.4
		c0.7,0,1.3-0.2,1.8-0.7c0.5-0.4,0.7-1.1,0.7-1.9v-2.1c-0.2,0.6-0.6,1.1-1.2,1.5c-0.6,0.4-1.2,0.6-2,0.6c-0.8,0-1.4-0.2-2-0.5
		c-0.6-0.4-1-0.9-1.4-1.5c-0.3-0.7-0.5-1.5-0.5-2.4c0-0.9,0.2-1.7,0.5-2.3c0.3-0.7,0.8-1.2,1.4-1.5c0.6-0.4,1.3-0.5,2-0.5
		C268.1,66,268.8,66.2,269.4,66.6z M266,68.3c-0.5,0.5-0.7,1.2-0.7,2.1s0.2,1.6,0.7,2.1c0.5,0.5,1.1,0.8,1.9,0.8
		c0.5,0,0.9-0.1,1.3-0.4c0.4-0.2,0.7-0.6,0.9-1c0.2-0.4,0.3-0.9,0.3-1.5c0-0.6-0.1-1.1-0.3-1.5c-0.2-0.4-0.5-0.8-0.9-1
		c-0.4-0.2-0.8-0.4-1.3-0.4C267.1,67.6,266.5,67.8,266,68.3z"/>
	<path class="st2" d="M286.6,66.6c0.6,0.4,0.9,0.9,1.2,1.5v-2h1.8v8.6h-1.8v-2c-0.2,0.6-0.6,1.1-1.2,1.5c-0.6,0.4-1.2,0.6-2,0.6
		c-0.8,0-1.4-0.2-2-0.5c-0.6-0.4-1-0.9-1.4-1.5c-0.3-0.7-0.5-1.5-0.5-2.4c0-0.9,0.2-1.7,0.5-2.3c0.3-0.7,0.8-1.2,1.4-1.5
		c0.6-0.4,1.3-0.5,2-0.5C285.3,66,286,66.2,286.6,66.6z M283.2,68.3c-0.5,0.5-0.7,1.2-0.7,2.1s0.2,1.6,0.7,2.1
		c0.5,0.5,1.1,0.8,1.9,0.8c0.5,0,0.9-0.1,1.3-0.4c0.4-0.2,0.7-0.6,0.9-1c0.2-0.4,0.3-0.9,0.3-1.5c0-0.6-0.1-1.1-0.3-1.5
		c-0.2-0.4-0.5-0.8-0.9-1c-0.4-0.2-0.8-0.4-1.3-0.4C284.3,67.6,283.7,67.8,283.2,68.3z"/>
	<path class="st2" d="M300.1,63.2v11.6h-1.8V63.2H300.1z"/>
	<path class="st2" d="M331.3,66.1l-2.4,8.6h-2l-2.1-6.7l-2.2,6.7h-2l-2.4-8.6h1.8l1.6,7l2.2-7h1.9l2.2,7l1.6-7H331.3z"/>
	<path class="st2" d="M345.3,66.6c0.7,0.4,1.2,0.9,1.6,1.5c0.4,0.7,0.6,1.4,0.6,2.3c0,0.9-0.2,1.7-0.6,2.4c-0.4,0.7-0.9,1.2-1.6,1.5
		c-0.7,0.4-1.4,0.5-2.3,0.5c-0.8,0-1.6-0.2-2.2-0.5c-0.7-0.4-1.2-0.9-1.6-1.5c-0.4-0.7-0.6-1.5-0.6-2.4c0-0.9,0.2-1.7,0.6-2.3
		c0.4-0.7,0.9-1.2,1.6-1.5c0.7-0.4,1.4-0.5,2.2-0.5C343.9,66,344.6,66.2,345.3,66.6z M341.8,67.9c-0.4,0.2-0.7,0.5-0.9,1
		c-0.2,0.4-0.4,1-0.4,1.6c0,0.6,0.1,1.2,0.4,1.6c0.2,0.4,0.5,0.7,0.9,1s0.8,0.3,1.3,0.3c0.5,0,0.9-0.1,1.3-0.3s0.7-0.5,0.9-1
		c0.2-0.4,0.4-1,0.4-1.6c0-0.6-0.1-1.2-0.4-1.6s-0.5-0.8-0.9-1s-0.8-0.3-1.3-0.3C342.6,67.6,342.2,67.7,341.8,67.9z"/>
	<path class="st2" d="M358.8,66.5c0.5-0.3,1.2-0.5,1.9-0.5v1.9h-0.5c-0.8,0-1.4,0.2-1.9,0.6c-0.5,0.4-0.7,1-0.7,1.9v4.4h-1.8v-8.6
		h1.8v1.7C357.9,67.3,358.3,66.8,358.8,66.5z"/>
	<path class="st2" d="M371.7,66.5c0.5-0.3,1.2-0.5,1.9-0.5v1.9h-0.5c-0.8,0-1.4,0.2-1.9,0.6c-0.5,0.4-0.7,1-0.7,1.9v4.4h-1.8v-8.6
		h1.8v1.7C370.8,67.3,371.2,66.8,371.7,66.5z"/>
	<path class="st2" d="M381.6,62.9c0.2-0.2,0.5-0.3,0.8-0.3s0.6,0.1,0.8,0.3c0.2,0.2,0.3,0.4,0.3,0.8c0,0.3-0.1,0.5-0.3,0.7
		c-0.2,0.2-0.5,0.3-0.8,0.3s-0.6-0.1-0.8-0.3c-0.2-0.2-0.3-0.4-0.3-0.7C381.3,63.3,381.4,63.1,381.6,62.9z M383.3,66.1v8.6h-1.8
		v-8.6H383.3z"/>
	<path class="st2" d="M400.1,70.8h-6.6c0,0.9,0.3,1.5,0.7,2c0.5,0.4,1,0.6,1.7,0.6c0.6,0,1.1-0.2,1.5-0.5c0.4-0.3,0.7-0.7,0.8-1.2
		h1.9c-0.1,0.6-0.4,1.1-0.7,1.6c-0.4,0.5-0.8,0.8-1.4,1.1c-0.6,0.3-1.2,0.4-2,0.4c-0.8,0-1.6-0.2-2.2-0.5c-0.6-0.4-1.1-0.9-1.5-1.5
		c-0.4-0.7-0.5-1.5-0.5-2.4c0-0.9,0.2-1.7,0.5-2.3c0.4-0.7,0.9-1.2,1.5-1.5c0.6-0.4,1.4-0.5,2.2-0.5c0.8,0,1.6,0.2,2.2,0.5
		c0.6,0.3,1.1,0.8,1.5,1.4c0.3,0.6,0.5,1.3,0.5,2C400.1,70.3,400.1,70.6,400.1,70.8z M398.1,68.6c-0.2-0.4-0.5-0.7-0.9-0.8
		s-0.8-0.3-1.2-0.3c-0.7,0-1.3,0.2-1.8,0.6c-0.5,0.4-0.7,1.1-0.8,1.9h4.9C398.4,69.4,398.3,68.9,398.1,68.6z"/>
	<path class="st2" d="M413.8,66.8c0.6,0.5,1,1.2,1.1,2.1h-1.7c-0.1-0.5-0.3-0.8-0.6-1.1s-0.8-0.4-1.3-0.4c-0.4,0-0.8,0.1-1,0.3
		c-0.2,0.2-0.4,0.5-0.4,0.9c0,0.3,0.1,0.5,0.3,0.7c0.2,0.2,0.4,0.3,0.7,0.4c0.3,0.1,0.6,0.2,1.1,0.3c0.6,0.1,1.2,0.3,1.6,0.5
		c0.4,0.2,0.7,0.4,1,0.7c0.3,0.3,0.4,0.8,0.4,1.4c0,0.7-0.3,1.3-0.8,1.8c-0.5,0.4-1.3,0.7-2.2,0.7c-1.1,0-1.9-0.3-2.6-0.8
		c-0.7-0.5-1.1-1.2-1.2-2.1h1.7c0.1,0.5,0.3,0.8,0.6,1.1c0.4,0.3,0.8,0.4,1.4,0.4c0.4,0,0.8-0.1,1-0.3c0.2-0.2,0.4-0.5,0.4-0.9
		c0-0.3-0.1-0.5-0.3-0.7s-0.4-0.3-0.7-0.4c-0.3-0.1-0.7-0.2-1.2-0.3c-0.6-0.1-1.1-0.3-1.5-0.4s-0.7-0.4-1-0.7
		c-0.3-0.3-0.4-0.8-0.4-1.3c0-0.7,0.3-1.3,0.8-1.8c0.5-0.5,1.3-0.7,2.3-0.7C412.3,66,413.2,66.3,413.8,66.8z"/>
</g>
</svg>
