<?xml version="1.0" encoding="utf-8"?>
<!-- Generator: Adobe Illustrator 19.2.0, SVG Export Plug-In . SVG Version: 6.00 Build 0)  -->
<svg version="1.1" id="Layer_1" xmlns="http://www.w3.org/2000/svg" xmlns:xlink="http://www.w3.org/1999/xlink" x="0px" y="0px"
	 viewBox="0 0 425 93.6" style="enable-background:new 0 0 425 93.6;" xml:space="preserve">
<style type="text/css">
	.st0{fill:#2A4EA2;}
	.st1{fill:#75C043;}
	.st2{fill:#808285;}
</style>
<g>
	<path class="st0" d="M108.5,18.5c0-0.3,0.1-0.5,0.3-0.7c0.2-0.2,0.4-0.3,0.7-0.3h6.6c0.3,0,0.5,0.1,0.7,0.3
		c0.2,0.2,0.3,0.4,0.3,0.7v24.1h12.2c0.3,0,0.5,0.1,0.7,0.3c0.2,0.2,0.3,0.4,0.3,0.7v5.8c0,0.3-0.1,0.5-0.3,0.7
		c-0.2,0.2-0.4,0.3-0.7,0.3h-19.8c-0.7,0-1-0.3-1-1V18.5z"/>
	<path class="st0" d="M161.7,48.8c0,0.3,0,0.5-0.1,0.7c-0.1,0.2-0.2,0.4-0.4,0.5c-0.2,0.2-0.4,0.3-0.6,0.3c-0.2,0-0.4,0.1-0.6,0.1
		h-4.4c-0.3,0-0.6,0-0.8-0.1c-0.2-0.1-0.3-0.2-0.5-0.3c-0.1-0.1-0.2-0.3-0.3-0.5c-0.1-0.2-0.2-0.4-0.3-0.7l-0.3-1
		c-0.4,0.4-0.9,0.8-1.4,1.2c-0.5,0.4-1.1,0.7-1.7,1c-0.6,0.3-1.3,0.5-2,0.7c-0.7,0.2-1.4,0.3-2.2,0.3c-1.3,0-2.6-0.2-3.9-0.5
		c-1.2-0.3-2.4-0.8-3.5-1.5c-1.1-0.6-2-1.4-2.9-2.3c-0.9-0.9-1.6-1.9-2.3-2.9c-0.6-1.1-1.1-2.2-1.5-3.5c-0.3-1.2-0.5-2.6-0.5-3.9
		c0-2.1,0.4-4,1.1-5.7c0.8-1.8,1.8-3.3,3.1-4.6c1.3-1.3,2.8-2.3,4.6-3.1c1.8-0.7,3.6-1.1,5.7-1.1c0.9,0,1.8,0.1,2.6,0.3
		c0.8,0.2,1.5,0.5,2.2,0.8c0.7,0.4,1.3,0.8,1.8,1.3c0.5,0.5,1,1,1.4,1.6l0.6-2c0.1-0.4,0.3-0.7,0.4-0.9c0.1-0.2,0.2-0.4,0.3-0.5
		c0.1-0.1,0.2-0.2,0.4-0.2c0.2,0,0.4-0.1,0.7-0.1h3.3c0.2,0,0.4,0,0.6,0.1c0.2,0,0.4,0.1,0.6,0.3c0.2,0.2,0.4,0.3,0.4,0.6
		c0.1,0.2,0.1,0.4,0.1,0.7V48.8z M139.9,36.4c0,1,0.2,1.9,0.5,2.7c0.3,0.9,0.7,1.6,1.3,2.2c0.6,0.6,1.2,1.1,2,1.5
		c0.8,0.4,1.7,0.5,2.6,0.5c1,0,1.9-0.2,2.8-0.5c0.8-0.4,1.6-0.9,2.2-1.5c0.6-0.6,1.1-1.4,1.5-2.2c0.4-0.9,0.5-1.8,0.5-2.7
		c0-0.9-0.2-1.8-0.5-2.7c-0.4-0.9-0.8-1.6-1.5-2.3c-0.6-0.7-1.4-1.2-2.2-1.5c-0.9-0.4-1.8-0.6-2.8-0.6c-1,0-1.8,0.2-2.6,0.6
		c-0.8,0.4-1.5,0.9-2,1.5c-0.6,0.7-1,1.4-1.3,2.3C140,34.6,139.9,35.5,139.9,36.4"/>
	<path class="st0" d="M163.5,24.5c-0.3-0.6-0.4-1.1-0.2-1.6c0.2-0.4,0.6-0.6,1.3-0.6h5.7c0.4,0,0.7,0.1,1,0.3
		c0.3,0.2,0.5,0.5,0.6,0.9c0.3,0.8,0.5,1.7,0.8,2.6s0.6,2,1,3c0.3,1,0.7,2,1,3c0.3,1,0.6,1.9,0.9,2.7c0.3,0.8,0.5,1.6,0.7,2.2
		c0.2,0.6,0.4,1.1,0.5,1.3l4.7-14.8c0.2-0.5,0.4-0.8,0.7-1c0.2-0.2,0.6-0.2,1-0.2h5.3c0.4,0,0.8,0.1,1,0.2c0.2,0.1,0.4,0.2,0.4,0.4
		c0.1,0.2,0.1,0.4,0,0.6c0,0.2-0.1,0.5-0.2,0.7l-2.4,6c0.1,0.3,0.3,0.7,0.6,1.3c0.3,0.6,0.6,1.3,1,2c0.4,0.8,0.8,1.6,1.2,2.4
		c0.4,0.8,0.7,1.6,1,2.3l5.4-14.7c0.2-0.5,0.4-0.8,0.6-1c0.2-0.2,0.5-0.2,0.9-0.2h4.9c0.7,0,1.2,0.1,1.5,0.4c0.3,0.3,0.3,0.8,0,1.5
		L194,49.5c-0.1,0.3-0.3,0.5-0.6,0.7c-0.3,0.2-0.7,0.3-1.2,0.3h-2.3c-0.6,0-1-0.1-1.3-0.3c-0.3-0.2-0.5-0.4-0.6-0.7l-4.1-10.1
		l-4.1,10.1c-0.2,0.3-0.4,0.5-0.6,0.7c-0.2,0.2-0.6,0.3-1,0.3h-2.6c-0.6,0-1-0.1-1.3-0.3c-0.2-0.2-0.4-0.4-0.5-0.7L163.5,24.5z"/>
	<path class="st0" d="M219.3,18.5c0-0.3,0.1-0.6,0.3-0.7c0.2-0.2,0.4-0.3,0.7-0.3H235c1.3,0,2.5,0.2,3.7,0.7c1.2,0.5,2.2,1.2,3,2
		c0.9,0.9,1.5,1.9,2.1,3c0.5,1.2,0.8,2.4,0.8,3.7c0,1.1-0.2,2.1-0.5,3.1c-0.3,1-0.8,1.8-1.5,2.6c1.1,1,1.9,2.1,2.5,3.5
		c0.6,1.3,0.9,2.8,0.9,4.3c0,1.3-0.3,2.6-0.8,3.8s-1.2,2.3-2.1,3.2c-0.9,0.9-1.9,1.6-3.1,2.2c-1.2,0.5-2.4,0.8-3.7,0.8h-16
		c-0.3,0-0.5-0.1-0.7-0.2c-0.2-0.2-0.3-0.4-0.3-0.7V18.5z M236,27.3c0-0.4-0.1-0.9-0.2-1.2c-0.2-0.4-0.4-0.7-0.7-1
		c-0.3-0.3-0.7-0.5-1.1-0.7c-0.4-0.2-0.9-0.3-1.4-0.3h-4.8v6.4h4.7c0.5,0,1-0.1,1.4-0.2c0.4-0.2,0.8-0.4,1.1-0.7
		c0.3-0.3,0.5-0.6,0.7-1C235.9,28.2,236,27.8,236,27.3 M237.2,40.2c0-0.4-0.1-0.9-0.3-1.3c-0.2-0.4-0.4-0.8-0.7-1.2
		c-0.3-0.3-0.7-0.6-1.1-0.9c-0.4-0.2-0.9-0.3-1.4-0.3h-5.9v7.4h5.9c0.5,0,0.9-0.1,1.4-0.3c0.4-0.2,0.8-0.5,1.1-0.8
		c0.3-0.3,0.6-0.7,0.7-1.2C237.1,41.1,237.2,40.7,237.2,40.2"/>
	<path class="st0" d="M247.9,23.9c0-0.3,0.1-0.5,0.2-0.7c0.1-0.2,0.2-0.4,0.4-0.5c0.2-0.1,0.4-0.2,0.6-0.3c0.2-0.1,0.4-0.1,0.6-0.1
		h3.4c0.4,0,0.7,0.1,0.9,0.3c0.2,0.2,0.4,0.5,0.6,0.8c0.2,0.3,0.3,0.7,0.4,1.1c0.1,0.4,0.3,0.8,0.4,1.2c0.4-0.5,0.9-1,1.3-1.4
		c0.4-0.5,0.9-0.9,1.4-1.3c0.5-0.4,1.1-0.7,1.7-0.9c0.6-0.2,1.3-0.3,2.1-0.3c0.8,0,1.5,0.1,2.1,0.2c0.6,0.1,1.2,0.3,1.8,0.5
		c0.6,0.2,1.1,0.5,1.7,0.9c0.6,0.4,1.2,0.8,1.8,1.2c0.6,0.4,1,0.8,1,1.3c0,0.3-0.1,0.7-0.4,1.1l-2,3.4c-0.4,0.6-0.9,0.9-1.5,0.9
		c-0.3,0-0.6-0.1-1-0.2c-0.6-0.6-1.3-1.1-1.9-1.4c-0.7-0.3-1.4-0.5-2.3-0.5c-0.6,0-1.1,0.1-1.5,0.2c-0.4,0.2-0.8,0.4-1.2,0.7
		c-0.4,0.3-0.7,0.7-1,1.1c-0.3,0.4-0.6,0.9-0.9,1.4v16.1c0,0.6-0.1,1-0.4,1.3c-0.3,0.3-0.7,0.4-1.4,0.4h-5c-1.2,0-1.7-0.6-1.7-1.7
		V23.9z"/>
	<path class="st0" d="M270.1,36.4c0-1.4,0.2-2.7,0.5-3.9c0.3-1.3,0.8-2.4,1.5-3.5c0.6-1.1,1.4-2,2.3-2.9c0.9-0.9,1.9-1.6,2.9-2.3
		c1.1-0.6,2.2-1.1,3.5-1.4c1.3-0.3,2.6-0.5,3.9-0.5c2,0,3.9,0.4,5.7,1.1c1.8,0.7,3.3,1.8,4.6,3.1c1.3,1.3,2.3,2.8,3.1,4.6
		c0.8,1.8,1.1,3.7,1.1,5.7c0,1.4-0.2,2.7-0.5,3.9c-0.3,1.3-0.8,2.4-1.5,3.5c-0.6,1.1-1.4,2.1-2.3,2.9c-0.9,0.9-1.9,1.6-2.9,2.3
		c-1.1,0.6-2.2,1.1-3.5,1.5c-1.2,0.3-2.5,0.5-3.9,0.5c-1.4,0-2.7-0.2-3.9-0.5c-1.3-0.3-2.4-0.8-3.5-1.5c-1.1-0.6-2.1-1.4-2.9-2.3
		c-0.9-0.9-1.6-1.9-2.3-2.9c-0.6-1.1-1.1-2.2-1.5-3.5C270.3,39.1,270.1,37.8,270.1,36.4 M278.2,36.4c0,1,0.2,1.9,0.5,2.7
		c0.3,0.9,0.7,1.6,1.3,2.2c0.6,0.6,1.2,1.1,2,1.5c0.8,0.4,1.7,0.5,2.7,0.5c1,0,1.8-0.2,2.6-0.5c0.8-0.4,1.4-0.9,2-1.5
		c0.5-0.6,1-1.4,1.2-2.2c0.3-0.9,0.4-1.8,0.4-2.7c0-0.9-0.1-1.8-0.4-2.7c-0.3-0.9-0.7-1.6-1.2-2.3c-0.5-0.7-1.2-1.2-2-1.5
		c-0.8-0.4-1.6-0.6-2.6-0.6c-1,0-1.9,0.2-2.7,0.6c-0.8,0.4-1.5,0.9-2,1.5c-0.6,0.7-1,1.4-1.3,2.3C278.4,34.6,278.2,35.5,278.2,36.4"
		/>
	<path class="st0" d="M301.9,17.9c0-0.5,0.2-0.8,0.5-1c0.3-0.2,0.7-0.4,1.3-0.7l5-1.8c0.1,0,0.1,0,0.2,0h0.2c0.5,0,0.9,0.2,1.1,0.5
		c0.2,0.3,0.3,0.7,0.3,1.3l0,6.1h3c0.5,0,0.9,0.1,1.2,0.4c0.3,0.3,0.4,0.7,0.4,1.3v4.3c0,0.6-0.1,1.1-0.4,1.4
		c-0.3,0.3-0.7,0.4-1.2,0.4h-3l0,18.7c0,0.6-0.2,1-0.5,1.3c-0.3,0.3-0.8,0.4-1.4,0.4h-5c-1.1,0-1.7-0.6-1.7-1.7l0-18.7h-2.3
		c-1.1,0-1.7-0.6-1.7-1.8V24c0-1.1,0.6-1.7,1.7-1.7h2.3L301.9,17.9z"/>
	<path class="st0" d="M326,25.3c0.3-0.4,0.7-0.8,1.2-1.2c0.5-0.4,1.1-0.8,1.7-1.1c0.6-0.3,1.4-0.6,2.1-0.8c0.8-0.2,1.6-0.3,2.5-0.3
		c1.7,0,3.1,0.3,4.4,1c1.2,0.6,2.3,1.5,3.1,2.7c0.8,1.1,1.4,2.4,1.8,3.9c0.4,1.5,0.6,3.1,0.6,4.8v14.5c0,0.6-0.1,1-0.4,1.3
		c-0.2,0.3-0.6,0.4-1.2,0.4h-5.1c-0.6,0-1.1-0.1-1.3-0.3c-0.2-0.2-0.4-0.6-0.4-1.3V34.2c0-0.6-0.1-1.2-0.4-1.8c-0.2-0.5-0.6-1-1-1.4
		c-0.4-0.4-0.9-0.7-1.5-1c-0.6-0.2-1.1-0.3-1.8-0.3c-0.5,0-1.1,0.1-1.6,0.3c-0.5,0.2-1,0.5-1.4,0.9c-0.4,0.4-0.7,0.9-1,1.4
		c-0.3,0.5-0.4,1.2-0.5,1.8v14.6c0,0.3,0,0.5-0.1,0.8c-0.1,0.3-0.2,0.4-0.4,0.6c-0.2,0.1-0.4,0.2-0.5,0.2c-0.2,0-0.4,0.1-0.6,0.1h-5
		c-0.6,0-1.1-0.2-1.4-0.5c-0.3-0.3-0.4-0.7-0.4-1.2V30.7v-0.2v-6.6v-0.1v-8.2c0-0.5,0.1-0.9,0.4-1.2c0.3-0.3,0.7-0.5,1.4-0.5h5
		c0.3,0,0.7,0.1,1.1,0.4c0.2,0.1,0.3,0.3,0.4,0.6c0.1,0.3,0.1,0.5,0.1,0.7V25.3z"/>
	<path class="st0" d="M370.5,47.1c-1.3,1.2-2.8,2.1-4.4,2.8c-1.6,0.7-3.4,1-5.2,1c-2,0-3.9-0.4-5.7-1.1c-1.8-0.7-3.4-1.8-4.8-3.1
		c-1.4-1.3-2.4-2.9-3.2-4.6c-0.8-1.8-1.2-3.7-1.2-5.8c0-1.3,0.2-2.6,0.5-3.8c0.3-1.2,0.8-2.4,1.4-3.4c0.6-1.1,1.3-2,2.1-2.9
		c0.8-0.9,1.8-1.7,2.8-2.3c1-0.6,2.2-1.1,3.4-1.5c1.2-0.4,2.5-0.5,3.8-0.5c1.2,0,2.4,0.2,3.6,0.5c1.2,0.3,2.2,0.8,3.3,1.4
		c1,0.6,1.9,1.3,2.8,2.1c0.8,0.8,1.6,1.7,2.2,2.7c0.6,1,1.1,2,1.4,3.2c0.3,1.1,0.5,2.3,0.5,3.5c0,0.8,0,1.4,0,1.9
		c0,0.5-0.1,0.9-0.3,1.2c-0.2,0.3-0.6,0.5-1,0.6c-0.5,0.1-1.2,0.2-2.1,0.2h-16c0.1,0.9,0.4,1.7,0.9,2.4c0.5,0.6,1,1.1,1.6,1.5
		c0.6,0.4,1.2,0.6,1.9,0.8c0.7,0.2,1.3,0.2,1.9,0.2c0.5,0,1.1-0.1,1.6-0.2c0.6-0.1,1.1-0.3,1.6-0.4c0.5-0.2,1-0.4,1.4-0.6
		c0.4-0.2,0.8-0.5,1.1-0.8c0.2-0.2,0.4-0.3,0.6-0.4c0.2-0.1,0.4-0.1,0.5-0.1s0.4,0.1,0.6,0.2c0.2,0.1,0.4,0.3,0.7,0.6l2.4,2.7
		c0.2,0.2,0.3,0.4,0.3,0.5c0,0.2,0.1,0.3,0.1,0.5c0,0.3-0.1,0.6-0.2,0.8C370.9,46.8,370.7,46.9,370.5,47.1 M359.8,28.6
		c-0.6,0-1.1,0.1-1.7,0.3c-0.5,0.2-1,0.5-1.5,0.9c-0.5,0.4-0.9,0.8-1.3,1.3c-0.4,0.5-0.7,1-0.9,1.5h11.3c-0.3-0.6-0.6-1.1-1-1.6
		c-0.4-0.5-0.8-0.9-1.2-1.3c-0.5-0.4-1-0.7-1.6-0.9C361.3,28.7,360.6,28.6,359.8,28.6"/>
	<path class="st0" d="M376.5,23.9c0-0.3,0.1-0.5,0.2-0.7c0.1-0.2,0.2-0.4,0.4-0.5s0.4-0.2,0.6-0.3c0.2-0.1,0.4-0.1,0.6-0.1h3.4
		c0.4,0,0.7,0.1,0.9,0.3c0.2,0.2,0.4,0.5,0.6,0.8c0.2,0.3,0.3,0.7,0.4,1.1c0.1,0.4,0.3,0.8,0.4,1.2c0.4-0.5,0.9-1,1.3-1.4
		c0.4-0.5,0.9-0.9,1.4-1.3c0.5-0.4,1.1-0.7,1.7-0.9c0.6-0.2,1.3-0.3,2.1-0.3c0.8,0,1.5,0.1,2.1,0.2c0.6,0.1,1.2,0.3,1.8,0.5
		c0.6,0.2,1.1,0.5,1.7,0.9c0.6,0.4,1.2,0.8,1.8,1.2c0.6,0.4,1,0.8,1,1.3c0,0.3-0.1,0.7-0.4,1.1l-2,3.4c-0.4,0.6-0.9,0.9-1.5,0.9
		c-0.3,0-0.6-0.1-1-0.2c-0.6-0.6-1.3-1.1-1.9-1.4c-0.7-0.3-1.4-0.5-2.3-0.5c-0.6,0-1.1,0.1-1.5,0.2c-0.4,0.2-0.8,0.4-1.2,0.7
		s-0.7,0.7-1,1.1c-0.3,0.4-0.6,0.9-0.9,1.4v16.1c0,0.6-0.1,1-0.4,1.3c-0.3,0.3-0.7,0.4-1.4,0.4h-5c-1.2,0-1.7-0.6-1.7-1.7V23.9z"/>
	<path class="st0" d="M403.3,41.7c0.4,0.4,0.8,0.7,1.3,1c0.5,0.3,0.9,0.5,1.3,0.7c0.4,0.2,0.8,0.3,1.1,0.4c0.3,0.1,0.5,0.1,0.7,0.1
		c0.3,0,0.6,0,1.1,0c0.4,0,0.9-0.1,1.3-0.2c0.4-0.1,0.7-0.3,1-0.5c0.3-0.3,0.4-0.6,0.4-1.1c0-0.4-0.1-0.7-0.2-1
		c-0.2-0.2-0.4-0.5-0.7-0.6c-0.3-0.2-0.7-0.3-1.1-0.5c-0.4-0.1-1-0.3-1.5-0.5c-1.8-0.5-3.2-1-4.4-1.7c-1.2-0.7-2.1-1.4-2.7-2.2
		c-0.7-0.8-1.1-1.7-1.4-2.7c-0.3-0.9-0.4-1.9-0.4-3c0-1.2,0.2-2.3,0.7-3.4c0.5-1,1.2-1.9,2.1-2.6c0.9-0.7,2-1.3,3.2-1.7
		c1.3-0.4,2.7-0.6,4.2-0.6c0.9,0,1.8,0.1,2.6,0.2c0.8,0.2,1.6,0.4,2.3,0.7c0.7,0.3,1.5,0.8,2.2,1.3c0.7,0.5,1.4,1.1,2.1,1.9
		c0.3,0.3,0.4,0.6,0.4,0.8c0,0.3-0.2,0.5-0.5,0.8c-0.6,0.5-1.1,0.9-1.7,1.4c-0.5,0.5-1.1,1-1.6,1.5c-0.2,0.1-0.4,0.2-0.5,0.3
		c-0.2,0-0.3,0-0.5,0c-0.2,0-0.3-0.1-0.5-0.2c-0.1-0.1-0.3-0.2-0.4-0.4c-0.5-0.6-1.1-1-1.8-1.2c-0.7-0.2-1.3-0.3-1.9-0.3
		c-0.7,0-1.3,0.1-1.7,0.4c-0.4,0.3-0.6,0.6-0.6,1.2c0,0.4,0.2,0.7,0.4,0.9c0.3,0.2,0.6,0.4,1,0.5c0.4,0.1,0.8,0.2,1.2,0.3
		c0.4,0.1,0.8,0.2,1.2,0.3c1.3,0.4,2.6,0.9,3.7,1.4c1.1,0.5,2.1,1.1,2.9,1.9s1.4,1.6,1.9,2.6c0.4,1,0.7,2.3,0.7,3.7
		c0,1.5-0.3,2.8-0.9,3.9c-0.6,1.2-1.4,2.1-2.4,2.9c-1,0.8-2.2,1.4-3.6,1.8c-1.4,0.4-2.9,0.6-4.5,0.6c-0.9,0-1.9-0.1-2.8-0.2
		c-0.9-0.2-1.9-0.4-2.8-0.8c-0.9-0.4-1.7-0.8-2.5-1.4c-0.8-0.6-1.5-1.3-2.1-2.1c-0.2-0.2-0.3-0.4-0.4-0.7c-0.1-0.2-0.1-0.5-0.1-0.7
		c0-0.2,0.1-0.4,0.1-0.6c0.1-0.2,0.2-0.3,0.4-0.5l2.9-2.9c0.4-0.3,0.7-0.4,0.9-0.3C402.5,41,402.9,41.3,403.3,41.7"/>
	<polygon class="st0" points="51,42 55.8,46.8 64.3,38.4 51,25.1 37.8,38.4 46.2,46.8 	"/>
	<polygon class="st0" points="72.7,46.8 64.3,55.2 67.9,58.8 51,75.6 34.2,58.8 34.2,58.8 13.4,37.9 4.9,46.4 51,92.5 84.7,58.8 	
		"/>
	<polygon class="st1" points="51,1.1 17.3,34.8 25.8,43.2 34.2,34.8 47.9,21 51,17.9 67.9,34.8 64.3,38.4 55.8,46.8 51,51.6 
		46.2,46.8 37.8,38.4 37.8,55.2 51,68.5 64.3,55.2 72.7,46.8 84.7,34.8 	"/>
	<polygon class="st2" points="116.3,64.7 116.3,66.2 113.4,66.2 113.4,75.7 111.6,75.7 111.6,66.2 108.6,66.2 108.6,64.7 	"/>
	<path class="st2" d="M121.3,69c0.4-0.7,0.9-1.2,1.5-1.6c0.6-0.4,1.3-0.6,2.1-0.6c0.7,0,1.3,0.1,1.8,0.4c0.5,0.3,0.9,0.6,1.2,1V67
		h1.8v8.7h-1.8v-1.3c-0.3,0.4-0.7,0.8-1.3,1c-0.5,0.3-1.1,0.4-1.8,0.4c-0.7,0-1.4-0.2-2.1-0.6c-0.6-0.4-1.1-0.9-1.5-1.6
		c-0.4-0.7-0.5-1.5-0.5-2.4S120.9,69.6,121.3,69 M127.5,69.8c-0.2-0.4-0.6-0.8-1-1c-0.4-0.2-0.8-0.3-1.3-0.3c-0.5,0-0.9,0.1-1.3,0.3
		c-0.4,0.2-0.7,0.6-1,1c-0.2,0.4-0.4,1-0.4,1.6c0,0.6,0.1,1.1,0.4,1.6c0.2,0.5,0.6,0.8,1,1c0.4,0.2,0.8,0.4,1.3,0.4
		c0.5,0,0.9-0.1,1.3-0.3c0.4-0.2,0.7-0.6,1-1c0.2-0.4,0.4-1,0.4-1.6C127.8,70.7,127.7,70.2,127.5,69.8"/>
	<path class="st2" d="M140.5,67.2c0.5,0.3,0.9,0.6,1.2,1V67h1.8v8.9c0,0.8-0.2,1.5-0.5,2.1c-0.3,0.6-0.8,1.1-1.5,1.5
		c-0.6,0.4-1.4,0.5-2.3,0.5c-1.2,0-2.2-0.3-2.9-0.8c-0.8-0.6-1.2-1.3-1.3-2.3h1.8c0.1,0.5,0.4,0.8,0.9,1.1c0.4,0.3,1,0.4,1.6,0.4
		c0.7,0,1.3-0.2,1.8-0.7c0.4-0.4,0.7-1.1,0.7-1.9v-1.5c-0.3,0.4-0.7,0.8-1.2,1c-0.5,0.3-1.1,0.4-1.8,0.4c-0.8,0-1.5-0.2-2.1-0.6
		c-0.6-0.4-1.1-0.9-1.5-1.6c-0.4-0.7-0.5-1.5-0.5-2.4s0.2-1.7,0.5-2.3c0.4-0.7,0.9-1.2,1.5-1.6c0.6-0.4,1.3-0.6,2.1-0.6
		C139.4,66.8,140,67,140.5,67.2 M141.4,69.8c-0.2-0.4-0.6-0.8-1-1c-0.4-0.2-0.8-0.3-1.3-0.3c-0.5,0-0.9,0.1-1.3,0.3
		c-0.4,0.2-0.7,0.6-1,1c-0.2,0.4-0.4,1-0.4,1.6c0,0.6,0.1,1.1,0.4,1.6c0.2,0.5,0.6,0.8,1,1c0.4,0.2,0.8,0.4,1.3,0.4
		c0.5,0,0.9-0.1,1.3-0.3c0.4-0.2,0.7-0.6,1-1c0.2-0.4,0.4-1,0.4-1.6C141.8,70.7,141.6,70.2,141.4,69.8"/>
	<path class="st2" d="M164.3,67v8.7h-1.8v-1c-0.3,0.4-0.7,0.6-1.1,0.8c-0.5,0.2-0.9,0.3-1.5,0.3c-0.7,0-1.3-0.1-1.8-0.4
		c-0.5-0.3-1-0.7-1.3-1.3c-0.3-0.6-0.5-1.2-0.5-2V67h1.8v4.9c0,0.8,0.2,1.4,0.6,1.8c0.4,0.4,0.9,0.6,1.6,0.6c0.7,0,1.2-0.2,1.6-0.6
		c0.4-0.4,0.6-1,0.6-1.8V67H164.3z"/>
	<path class="st2" d="M171.2,75.5c-0.5-0.2-1-0.6-1.3-1c-0.3-0.4-0.5-0.9-0.5-1.4h1.9c0,0.4,0.2,0.7,0.5,0.9
		c0.3,0.2,0.7,0.4,1.2,0.4c0.5,0,0.9-0.1,1.2-0.3s0.4-0.4,0.4-0.8c0-0.3-0.2-0.6-0.5-0.7c-0.3-0.2-0.8-0.3-1.5-0.5
		c-0.7-0.2-1.2-0.4-1.6-0.5c-0.4-0.2-0.8-0.4-1.1-0.8c-0.3-0.3-0.5-0.8-0.5-1.4c0-0.5,0.1-0.9,0.4-1.3c0.3-0.4,0.7-0.7,1.2-0.9
		c0.5-0.2,1.1-0.3,1.8-0.3c1,0,1.8,0.3,2.4,0.8s0.9,1.2,1,2h-1.8c0-0.4-0.2-0.7-0.5-0.9c-0.3-0.2-0.7-0.3-1.2-0.3
		c-0.5,0-0.8,0.1-1.1,0.3c-0.3,0.2-0.4,0.4-0.4,0.7c0,0.2,0.1,0.4,0.3,0.6c0.2,0.2,0.4,0.3,0.6,0.4c0.2,0.1,0.6,0.2,1.1,0.3
		c0.6,0.2,1.2,0.3,1.6,0.5c0.4,0.2,0.8,0.4,1.1,0.8c0.3,0.3,0.4,0.8,0.5,1.3c0,0.5-0.1,0.9-0.4,1.3c-0.3,0.4-0.7,0.7-1.2,0.9
		c-0.5,0.2-1.1,0.3-1.8,0.3C172.3,75.8,171.7,75.7,171.2,75.5"/>
	<path class="st2" d="M192.4,68.4h-1.6v7.3H189v-7.3h-1V67h1v-0.6c0-1,0.3-1.7,0.8-2.2c0.5-0.5,1.4-0.7,2.5-0.7V65
		c-0.5,0-0.9,0.1-1.2,0.3c-0.2,0.2-0.3,0.6-0.3,1.1V67h1.6V68.4z"/>
	<path class="st2" d="M198.7,75.3c-0.7-0.4-1.2-0.9-1.6-1.6c-0.4-0.7-0.6-1.5-0.6-2.4c0-0.9,0.2-1.7,0.6-2.4
		c0.4-0.7,0.9-1.2,1.6-1.6c0.7-0.4,1.4-0.6,2.3-0.6c0.8,0,1.6,0.2,2.3,0.6c0.7,0.4,1.2,0.9,1.6,1.6c0.4,0.7,0.6,1.5,0.6,2.4
		c0,0.9-0.2,1.7-0.6,2.4c-0.4,0.7-0.9,1.2-1.6,1.6c-0.7,0.4-1.5,0.6-2.3,0.6C200.1,75.8,199.4,75.6,198.7,75.3 M202.3,73.9
		c0.4-0.2,0.7-0.6,1-1c0.3-0.4,0.4-1,0.4-1.6c0-0.6-0.1-1.2-0.4-1.6c-0.2-0.4-0.6-0.8-1-1c-0.4-0.2-0.8-0.3-1.3-0.3
		c-0.5,0-0.9,0.1-1.3,0.3c-0.4,0.2-0.7,0.6-0.9,1c-0.2,0.4-0.3,1-0.3,1.6c0,0.9,0.2,1.7,0.7,2.2c0.5,0.5,1.1,0.8,1.8,0.8
		C201.4,74.3,201.9,74.2,202.3,73.9"/>
	<path class="st2" d="M213.3,67.2c0.4-0.2,1-0.4,1.6-0.4v1.9h-0.5c-0.7,0-1.2,0.2-1.6,0.5c-0.4,0.4-0.5,1-0.5,1.9v4.6h-1.8V67h1.8
		v1.3C212.5,67.8,212.9,67.4,213.3,67.2"/>
	<polygon class="st2" points="234.8,67 229.5,79.8 227.6,79.8 229.4,75.5 225.9,67 227.9,67 230.4,73.6 233,67 	"/>
	<path class="st2" d="M240.9,75.3c-0.7-0.4-1.2-0.9-1.6-1.6c-0.4-0.7-0.6-1.5-0.6-2.4c0-0.9,0.2-1.7,0.6-2.4
		c0.4-0.7,0.9-1.2,1.6-1.6c0.7-0.4,1.4-0.6,2.3-0.6c0.8,0,1.6,0.2,2.3,0.6c0.7,0.4,1.2,0.9,1.6,1.6c0.4,0.7,0.6,1.5,0.6,2.4
		c0,0.9-0.2,1.7-0.6,2.4s-0.9,1.2-1.6,1.6c-0.7,0.4-1.5,0.6-2.3,0.6C242.3,75.8,241.6,75.6,240.9,75.3 M244.4,73.9
		c0.4-0.2,0.7-0.6,1-1c0.3-0.4,0.4-1,0.4-1.6c0-0.6-0.1-1.2-0.4-1.6c-0.2-0.4-0.6-0.8-1-1c-0.4-0.2-0.8-0.3-1.3-0.3
		c-0.5,0-0.9,0.1-1.3,0.3c-0.4,0.2-0.7,0.6-0.9,1c-0.2,0.4-0.3,1-0.3,1.6c0,0.9,0.2,1.7,0.7,2.2c0.5,0.5,1.1,0.8,1.8,0.8
		C243.6,74.3,244,74.2,244.4,73.9"/>
	<path class="st2" d="M260.5,67v8.7h-1.8v-1c-0.3,0.4-0.7,0.6-1.1,0.8c-0.5,0.2-0.9,0.3-1.5,0.3c-0.7,0-1.3-0.1-1.8-0.4
		c-0.5-0.3-1-0.7-1.3-1.3c-0.3-0.6-0.5-1.2-0.5-2V67h1.8v4.9c0,0.8,0.2,1.4,0.6,1.8c0.4,0.4,0.9,0.6,1.6,0.6c0.7,0,1.2-0.2,1.6-0.6
		s0.6-1,0.6-1.8V67H260.5z"/>
	<path class="st2" d="M268.9,67.2c0.4-0.2,1-0.4,1.6-0.4v1.9H270c-0.7,0-1.2,0.2-1.6,0.5c-0.4,0.4-0.5,1-0.5,1.9v4.6h-1.8V67h1.8
		v1.3C268.1,67.8,268.5,67.4,268.9,67.2"/>
	<rect x="282.6" y="64" class="st2" width="1.8" height="11.7"/>
	<path class="st2" d="M297.9,72h-6.7c0.1,0.7,0.3,1.3,0.8,1.7c0.5,0.4,1,0.6,1.7,0.6c1,0,1.7-0.4,2.1-1.2h1.9
		c-0.3,0.8-0.7,1.5-1.4,2c-0.7,0.5-1.5,0.8-2.6,0.8c-0.8,0-1.6-0.2-2.2-0.6c-0.7-0.4-1.2-0.9-1.6-1.6c-0.4-0.7-0.6-1.5-0.6-2.4
		c0-0.9,0.2-1.7,0.5-2.4c0.4-0.7,0.9-1.2,1.5-1.6c0.7-0.4,1.4-0.6,2.3-0.6c0.8,0,1.6,0.2,2.2,0.5c0.6,0.4,1.1,0.9,1.5,1.5
		c0.4,0.6,0.5,1.4,0.5,2.2C297.9,71.4,297.9,71.7,297.9,72 M296,70.5c0-0.7-0.2-1.2-0.7-1.6c-0.5-0.4-1-0.6-1.7-0.6
		c-0.6,0-1.2,0.2-1.6,0.6s-0.7,0.9-0.8,1.6H296z"/>
	<path class="st2" d="M308.2,67.2c0.5,0.3,0.9,0.6,1.2,1V67h1.8v8.9c0,0.8-0.2,1.5-0.5,2.1c-0.3,0.6-0.8,1.1-1.5,1.5
		c-0.6,0.4-1.4,0.5-2.3,0.5c-1.2,0-2.2-0.3-2.9-0.8c-0.8-0.6-1.2-1.3-1.3-2.3h1.8c0.1,0.5,0.4,0.8,0.9,1.1c0.4,0.3,1,0.4,1.6,0.4
		c0.7,0,1.3-0.2,1.8-0.7c0.4-0.4,0.7-1.1,0.7-1.9v-1.5c-0.3,0.4-0.7,0.8-1.2,1c-0.5,0.3-1.1,0.4-1.8,0.4c-0.8,0-1.5-0.2-2.1-0.6
		c-0.6-0.4-1.1-0.9-1.5-1.6c-0.4-0.7-0.5-1.5-0.5-2.4s0.2-1.7,0.5-2.3c0.4-0.7,0.9-1.2,1.5-1.6c0.6-0.4,1.3-0.6,2.1-0.6
		C307.1,66.8,307.7,67,308.2,67.2 M309,69.8c-0.2-0.4-0.6-0.8-1-1c-0.4-0.2-0.8-0.3-1.3-0.3c-0.5,0-0.9,0.1-1.3,0.3
		c-0.4,0.2-0.7,0.6-1,1c-0.2,0.4-0.4,1-0.4,1.6c0,0.6,0.1,1.1,0.4,1.6c0.2,0.5,0.6,0.8,1,1c0.4,0.2,0.8,0.4,1.3,0.4
		c0.5,0,0.9-0.1,1.3-0.3c0.4-0.2,0.7-0.6,1-1c0.2-0.4,0.4-1,0.4-1.6C309.4,70.7,309.3,70.2,309,69.8"/>
	<path class="st2" d="M316.7,69c0.4-0.7,0.9-1.2,1.5-1.6c0.6-0.4,1.3-0.6,2.1-0.6c0.7,0,1.3,0.1,1.8,0.4c0.5,0.3,0.9,0.6,1.2,1V67
		h1.8v8.7h-1.8v-1.3c-0.3,0.4-0.7,0.8-1.3,1c-0.5,0.3-1.1,0.4-1.8,0.4c-0.8,0-1.4-0.2-2.1-0.6c-0.6-0.4-1.1-0.9-1.5-1.6
		c-0.4-0.7-0.5-1.5-0.5-2.4S316.4,69.6,316.7,69 M322.9,69.8c-0.2-0.4-0.6-0.8-1-1c-0.4-0.2-0.8-0.3-1.3-0.3c-0.5,0-0.9,0.1-1.3,0.3
		c-0.4,0.2-0.7,0.6-1,1c-0.2,0.4-0.4,1-0.4,1.6c0,0.6,0.1,1.1,0.4,1.6c0.2,0.5,0.6,0.8,1,1c0.4,0.2,0.8,0.4,1.3,0.4
		c0.5,0,0.9-0.1,1.3-0.3c0.4-0.2,0.7-0.6,1-1c0.2-0.4,0.4-1,0.4-1.6C323.3,70.7,323.2,70.2,322.9,69.8"/>
	<rect x="330.7" y="64" class="st2" width="1.8" height="11.7"/>
	<polygon class="st2" points="357,67 354.3,75.7 352.4,75.7 350.7,69.2 348.9,75.7 347,75.7 344.3,67 346.1,67 347.9,74 349.8,67 
		351.7,67 353.4,73.9 355.2,67 	"/>
	<path class="st2" d="M363.1,75.3c-0.7-0.4-1.2-0.9-1.6-1.6c-0.4-0.7-0.6-1.5-0.6-2.4c0-0.9,0.2-1.7,0.6-2.4
		c0.4-0.7,0.9-1.2,1.6-1.6c0.7-0.4,1.4-0.6,2.3-0.6s1.6,0.2,2.3,0.6c0.7,0.4,1.2,0.9,1.6,1.6c0.4,0.7,0.6,1.5,0.6,2.4
		c0,0.9-0.2,1.7-0.6,2.4s-0.9,1.2-1.6,1.6c-0.7,0.4-1.5,0.6-2.3,0.6C364.5,75.8,363.8,75.6,363.1,75.3 M366.6,73.9
		c0.4-0.2,0.7-0.6,1-1c0.3-0.4,0.4-1,0.4-1.6c0-0.6-0.1-1.2-0.4-1.6c-0.2-0.4-0.6-0.8-1-1c-0.4-0.2-0.8-0.3-1.3-0.3
		c-0.5,0-0.9,0.1-1.3,0.3c-0.4,0.2-0.7,0.6-0.9,1c-0.2,0.4-0.3,1-0.3,1.6c0,0.9,0.2,1.7,0.7,2.2c0.5,0.5,1.1,0.8,1.8,0.8
		C365.8,74.3,366.2,74.2,366.6,73.9"/>
	<path class="st2" d="M377.7,67.2c0.4-0.2,1-0.4,1.6-0.4v1.9h-0.5c-0.7,0-1.2,0.2-1.6,0.5c-0.4,0.4-0.5,1-0.5,1.9v4.6h-1.8V67h1.8
		v1.3C376.9,67.8,377.2,67.4,377.7,67.2"/>
	<path class="st2" d="M386.9,67.2c0.4-0.2,1-0.4,1.6-0.4v1.9H388c-0.7,0-1.2,0.2-1.6,0.5c-0.4,0.4-0.5,1-0.5,1.9v4.6H384V67h1.8v1.3
		C386.1,67.8,386.5,67.4,386.9,67.2"/>
	<path class="st2" d="M393.4,65.5c-0.2-0.2-0.3-0.5-0.3-0.8c0-0.3,0.1-0.6,0.3-0.8c0.2-0.2,0.5-0.3,0.8-0.3c0.3,0,0.6,0.1,0.8,0.3
		c0.2,0.2,0.3,0.5,0.3,0.8c0,0.3-0.1,0.6-0.3,0.8c-0.2,0.2-0.5,0.3-0.8,0.3C393.9,65.8,393.6,65.7,393.4,65.5 M395.1,75.7h-1.8V67
		h1.8V75.7z"/>
	<path class="st2" d="M408.6,72h-6.7c0.1,0.7,0.3,1.3,0.8,1.7c0.5,0.4,1,0.6,1.7,0.6c1,0,1.7-0.4,2.1-1.2h1.9
		c-0.3,0.8-0.7,1.5-1.4,2c-0.7,0.5-1.5,0.8-2.6,0.8c-0.8,0-1.6-0.2-2.2-0.6c-0.7-0.4-1.2-0.9-1.6-1.6c-0.4-0.7-0.6-1.5-0.6-2.4
		c0-0.9,0.2-1.7,0.5-2.4c0.4-0.7,0.9-1.2,1.5-1.6c0.7-0.4,1.4-0.6,2.3-0.6c0.8,0,1.6,0.2,2.2,0.5c0.6,0.4,1.1,0.9,1.5,1.5
		c0.4,0.6,0.5,1.4,0.5,2.2C408.6,71.4,408.6,71.7,408.6,72 M406.8,70.5c0-0.7-0.2-1.2-0.7-1.6c-0.5-0.4-1-0.6-1.7-0.6
		c-0.6,0-1.2,0.2-1.6,0.6s-0.7,0.9-0.8,1.6H406.8z"/>
	<path class="st2" d="M414.9,75.5c-0.5-0.2-1-0.6-1.3-1c-0.3-0.4-0.5-0.9-0.5-1.4h1.9c0,0.4,0.2,0.7,0.5,0.9
		c0.3,0.2,0.7,0.4,1.2,0.4c0.5,0,0.9-0.1,1.2-0.3c0.3-0.2,0.4-0.4,0.4-0.8c0-0.3-0.2-0.6-0.5-0.7c-0.3-0.2-0.8-0.3-1.5-0.5
		c-0.7-0.2-1.2-0.4-1.6-0.5c-0.4-0.2-0.8-0.4-1.1-0.8c-0.3-0.3-0.5-0.8-0.5-1.4c0-0.5,0.1-0.9,0.4-1.3c0.3-0.4,0.7-0.7,1.2-0.9
		c0.5-0.2,1.1-0.3,1.8-0.3c1,0,1.8,0.3,2.4,0.8c0.6,0.5,0.9,1.2,1,2h-1.8c0-0.4-0.2-0.7-0.5-0.9c-0.3-0.2-0.7-0.3-1.2-0.3
		c-0.5,0-0.8,0.1-1.1,0.3c-0.3,0.2-0.4,0.4-0.4,0.7c0,0.2,0.1,0.4,0.3,0.6c0.2,0.2,0.4,0.3,0.6,0.4c0.2,0.1,0.6,0.2,1.1,0.3
		c0.6,0.2,1.2,0.3,1.6,0.5c0.4,0.2,0.8,0.4,1.1,0.8c0.3,0.3,0.4,0.8,0.5,1.3c0,0.5-0.1,0.9-0.4,1.3c-0.3,0.4-0.7,0.7-1.2,0.9
		c-0.5,0.2-1.1,0.3-1.8,0.3C416.1,75.8,415.4,75.7,414.9,75.5"/>
</g>
</svg>
