<?xml version="1.0" encoding="utf-8"?>
<!-- Generator: Adobe Illustrator 19.2.0, SVG Export Plug-In . SVG Version: 6.00 Build 0)  -->
<svg version="1.1" id="Layer_1" xmlns="http://www.w3.org/2000/svg" xmlns:xlink="http://www.w3.org/1999/xlink" x="0px" y="0px"
	 viewBox="0 0 330.7 73" style="enable-background:new 0 0 330.7 73;" xml:space="preserve">
<style type="text/css">
	.st0{fill:#FFFFFF;}
	.st1{fill:#A7A8AB;}
</style>
<g>
	<path class="st0" d="M83,14.1c0-0.2,0.1-0.4,0.2-0.5c0.1-0.2,0.3-0.2,0.6-0.2h5.2c0.2,0,0.4,0.1,0.5,0.2c0.2,0.1,0.3,0.3,0.3,0.6
		v19.1h9.7c0.2,0,0.4,0.1,0.5,0.2c0.2,0.1,0.2,0.3,0.2,0.6v4.6c0,0.2-0.1,0.4-0.2,0.5c-0.1,0.2-0.3,0.3-0.6,0.3H83.7
		c-0.5,0-0.8-0.3-0.8-0.8V14.1z"/>
	<path class="st0" d="M125.1,38.1c0,0.2,0,0.4-0.1,0.6c-0.1,0.2-0.2,0.3-0.4,0.4c-0.1,0.1-0.3,0.2-0.5,0.2c-0.2,0-0.3,0.1-0.5,0.1
		h-3.5c-0.2,0-0.4,0-0.6-0.1c-0.2-0.1-0.3-0.2-0.4-0.3c-0.1-0.1-0.2-0.3-0.2-0.4c-0.1-0.2-0.1-0.4-0.2-0.6l-0.2-0.8
		c-0.3,0.3-0.7,0.6-1.1,0.9c-0.4,0.3-0.8,0.6-1.3,0.8c-0.5,0.2-1,0.4-1.6,0.6c-0.6,0.1-1.1,0.2-1.7,0.2c-1.1,0-2.1-0.1-3.1-0.4
		c-1-0.3-1.9-0.7-2.7-1.2c-0.9-0.5-1.6-1.1-2.3-1.8c-0.7-0.7-1.3-1.5-1.8-2.3c-0.5-0.9-0.9-1.8-1.2-2.8c-0.3-1-0.4-2-0.4-3.1
		c0-1.6,0.3-3.1,0.9-4.5c0.6-1.4,1.4-2.6,2.4-3.7c1-1,2.2-1.9,3.6-2.4c1.4-0.6,2.9-0.9,4.5-0.9c0.7,0,1.4,0.1,2,0.2
		c0.6,0.2,1.2,0.4,1.7,0.7c0.5,0.3,1,0.6,1.4,1c0.4,0.4,0.8,0.8,1.1,1.3l0.5-1.6c0.1-0.3,0.2-0.5,0.3-0.7c0.1-0.2,0.2-0.3,0.2-0.4
		c0.1-0.1,0.2-0.1,0.3-0.2c0.1,0,0.3,0,0.5,0h2.6c0.1,0,0.3,0,0.5,0.1c0.2,0,0.3,0.1,0.5,0.2c0.2,0.1,0.3,0.3,0.4,0.4
		c0.1,0.2,0.1,0.4,0.1,0.6V38.1z M107.8,28.3c0,0.8,0.1,1.5,0.4,2.2c0.2,0.7,0.6,1.3,1,1.7c0.4,0.5,1,0.9,1.6,1.2
		c0.6,0.3,1.3,0.4,2.1,0.4c0.8,0,1.5-0.1,2.2-0.4c0.7-0.3,1.3-0.7,1.8-1.2c0.5-0.5,0.9-1.1,1.2-1.7c0.3-0.7,0.4-1.4,0.4-2.2
		c0-0.7-0.1-1.5-0.4-2.1c-0.3-0.7-0.7-1.3-1.2-1.8c-0.5-0.5-1.1-0.9-1.8-1.2c-0.7-0.3-1.4-0.4-2.2-0.4c-0.8,0-1.5,0.2-2.1,0.4
		c-0.6,0.3-1.2,0.7-1.6,1.2c-0.4,0.5-0.8,1.1-1,1.8C107.9,26.8,107.8,27.5,107.8,28.3"/>
	<path class="st0" d="M126.6,18.8c-0.2-0.5-0.3-0.9-0.1-1.2c0.1-0.3,0.5-0.5,1-0.5h4.5c0.3,0,0.6,0.1,0.8,0.2
		c0.2,0.2,0.4,0.4,0.5,0.7c0.2,0.6,0.4,1.3,0.7,2.1c0.2,0.8,0.5,1.5,0.8,2.3c0.3,0.8,0.5,1.6,0.8,2.4c0.3,0.8,0.5,1.5,0.7,2.2
		c0.2,0.7,0.4,1.2,0.6,1.7c0.2,0.5,0.3,0.8,0.4,1.1l3.7-11.8c0.2-0.4,0.3-0.6,0.5-0.8c0.2-0.1,0.5-0.2,0.8-0.2h4.2
		c0.3,0,0.6,0,0.8,0.1c0.2,0.1,0.3,0.2,0.4,0.3c0.1,0.1,0.1,0.3,0,0.5c0,0.2-0.1,0.4-0.2,0.6l-1.9,4.7c0.1,0.2,0.2,0.5,0.5,1
		c0.2,0.5,0.5,1,0.8,1.6c0.3,0.6,0.6,1.2,0.9,1.9c0.3,0.7,0.6,1.3,0.8,1.9l4.3-11.7c0.2-0.4,0.3-0.6,0.5-0.8
		c0.2-0.1,0.4-0.2,0.7-0.2h3.9c0.6,0,0.9,0.1,1.2,0.3c0.2,0.2,0.2,0.6,0,1.2l-8.2,20.1c-0.1,0.2-0.3,0.4-0.5,0.5
		c-0.2,0.1-0.5,0.2-0.9,0.2h-1.8c-0.5,0-0.8-0.1-1-0.2c-0.2-0.1-0.4-0.3-0.5-0.6l-3.3-8l-3.2,8c-0.1,0.2-0.3,0.4-0.5,0.5
		c-0.2,0.1-0.4,0.2-0.8,0.2h-2.1c-0.5,0-0.8-0.1-1-0.2c-0.2-0.1-0.3-0.3-0.4-0.6L126.6,18.8z"/>
	<path class="st0" d="M170.7,14.1c0-0.2,0.1-0.4,0.2-0.6c0.1-0.1,0.3-0.2,0.6-0.2h11.7c1,0,2,0.2,2.9,0.6c0.9,0.4,1.7,0.9,2.4,1.6
		c0.7,0.7,1.2,1.5,1.6,2.4c0.4,0.9,0.6,1.9,0.6,3c0,0.9-0.1,1.7-0.4,2.5c-0.3,0.8-0.7,1.4-1.2,2c0.8,0.8,1.5,1.7,2,2.8
		c0.5,1.1,0.7,2.2,0.7,3.4c0,1.1-0.2,2.1-0.6,3c-0.4,1-1,1.8-1.7,2.5c-0.7,0.7-1.5,1.3-2.4,1.7c-0.9,0.4-1.9,0.6-2.9,0.6h-12.7
		c-0.2,0-0.4-0.1-0.6-0.2c-0.1-0.1-0.2-0.3-0.2-0.6V14.1z M184,21.1c0-0.4-0.1-0.7-0.2-1c-0.1-0.3-0.3-0.6-0.5-0.8
		c-0.2-0.2-0.5-0.4-0.8-0.6c-0.3-0.1-0.7-0.2-1.1-0.2h-3.8v5.1h3.7c0.4,0,0.8-0.1,1.1-0.2c0.3-0.1,0.6-0.3,0.9-0.5
		c0.2-0.2,0.4-0.5,0.6-0.8C183.9,21.8,184,21.4,184,21.1 M184.9,31.3c0-0.4-0.1-0.7-0.2-1.1c-0.1-0.4-0.3-0.7-0.6-0.9
		c-0.2-0.3-0.5-0.5-0.9-0.7c-0.3-0.2-0.7-0.3-1.1-0.3h-4.7v5.9h4.7c0.4,0,0.7-0.1,1.1-0.2c0.3-0.2,0.6-0.4,0.9-0.7
		c0.2-0.3,0.4-0.6,0.6-0.9C184.8,32,184.9,31.6,184.9,31.3"/>
	<path class="st0" d="M193.4,18.4c0-0.2,0-0.4,0.1-0.6c0.1-0.2,0.2-0.3,0.3-0.4c0.1-0.1,0.3-0.2,0.5-0.2c0.2-0.1,0.3-0.1,0.5-0.1
		h2.7c0.3,0,0.5,0.1,0.7,0.3c0.2,0.2,0.3,0.4,0.4,0.7c0.1,0.3,0.2,0.6,0.3,0.9c0.1,0.3,0.2,0.6,0.3,0.9c0.4-0.4,0.7-0.8,1-1.1
		c0.3-0.4,0.7-0.7,1.1-1c0.4-0.3,0.8-0.5,1.3-0.7c0.5-0.2,1-0.3,1.6-0.3c0.6,0,1.2,0,1.7,0.1c0.5,0.1,1,0.2,1.4,0.4
		c0.4,0.2,0.9,0.4,1.3,0.7c0.4,0.3,0.9,0.6,1.4,1c0.5,0.3,0.8,0.6,0.8,1c0,0.3-0.1,0.6-0.3,0.9l-1.6,2.7c-0.3,0.5-0.7,0.7-1.2,0.7
		c-0.2,0-0.5-0.1-0.8-0.2c-0.5-0.5-1-0.9-1.5-1.1c-0.5-0.2-1.1-0.4-1.8-0.4c-0.5,0-0.9,0.1-1.2,0.2c-0.3,0.1-0.7,0.3-0.9,0.5
		c-0.3,0.2-0.5,0.5-0.8,0.8c-0.2,0.3-0.5,0.7-0.7,1.1v12.7c0,0.4-0.1,0.8-0.3,1c-0.2,0.2-0.6,0.3-1.1,0.3h-4c-0.9,0-1.4-0.5-1.4-1.4
		V18.4z"/>
	<path class="st0" d="M211,28.3c0-1.1,0.1-2.1,0.4-3.1c0.3-1,0.7-1.9,1.2-2.8c0.5-0.8,1.1-1.6,1.8-2.3c0.7-0.7,1.5-1.3,2.3-1.8
		c0.9-0.5,1.8-0.9,2.8-1.1c1-0.3,2-0.4,3.1-0.4c1.6,0,3.1,0.3,4.5,0.9c1.4,0.6,2.6,1.4,3.7,2.4c1,1,1.9,2.3,2.5,3.7
		c0.6,1.4,0.9,2.9,0.9,4.5c0,1.1-0.1,2.1-0.4,3.1c-0.3,1-0.7,1.9-1.2,2.8c-0.5,0.9-1.1,1.6-1.8,2.3c-0.7,0.7-1.5,1.3-2.3,1.8
		c-0.9,0.5-1.8,0.9-2.8,1.2c-1,0.3-2,0.4-3.1,0.4c-1.1,0-2.1-0.1-3.1-0.4c-1-0.3-1.9-0.7-2.8-1.2c-0.9-0.5-1.6-1.1-2.3-1.8
		c-0.7-0.7-1.3-1.5-1.8-2.3c-0.5-0.9-0.9-1.8-1.2-2.8C211.2,30.4,211,29.4,211,28.3 M217.4,28.3c0,0.8,0.1,1.5,0.4,2.2
		c0.2,0.7,0.6,1.3,1,1.7c0.4,0.5,1,0.9,1.6,1.2c0.6,0.3,1.3,0.4,2.1,0.4c0.8,0,1.4-0.1,2.1-0.4c0.6-0.3,1.1-0.7,1.6-1.2
		c0.4-0.5,0.8-1.1,1-1.7c0.2-0.7,0.3-1.4,0.3-2.2c0-0.7-0.1-1.5-0.3-2.1c-0.2-0.7-0.6-1.3-1-1.8c-0.4-0.5-1-0.9-1.6-1.2
		c-0.6-0.3-1.3-0.4-2.1-0.4c-0.8,0-1.5,0.2-2.1,0.4c-0.6,0.3-1.2,0.7-1.6,1.2c-0.4,0.5-0.8,1.1-1,1.8
		C217.6,26.8,217.4,27.5,217.4,28.3"/>
	<path class="st0" d="M236.2,13.6c0-0.4,0.1-0.6,0.4-0.8c0.2-0.2,0.6-0.4,1-0.5l4-1.4c0.1,0,0.1,0,0.2,0h0.1c0.4,0,0.7,0.1,0.9,0.4
		c0.1,0.3,0.2,0.6,0.2,1l0,4.8h2.4c0.4,0,0.7,0.1,0.9,0.3c0.2,0.2,0.4,0.6,0.4,1v3.4c0,0.5-0.1,0.9-0.4,1.1
		c-0.2,0.2-0.5,0.3-0.9,0.3h-2.4l0,14.8c0,0.4-0.1,0.8-0.4,1c-0.3,0.2-0.6,0.3-1.1,0.3h-4c-0.9,0-1.4-0.5-1.4-1.4l0-14.8h-1.8
		c-0.9,0-1.4-0.5-1.4-1.4v-3.4c0-0.9,0.5-1.3,1.4-1.3h1.8L236.2,13.6z"/>
	<path class="st0" d="M255.3,19.4c0.2-0.3,0.5-0.7,0.9-1c0.4-0.3,0.8-0.6,1.4-0.9c0.5-0.3,1.1-0.5,1.7-0.6c0.6-0.2,1.3-0.2,2-0.2
		c1.3,0,2.5,0.3,3.5,0.8c1,0.5,1.8,1.2,2.4,2.1c0.6,0.9,1.1,1.9,1.4,3.1c0.3,1.2,0.5,2.5,0.5,3.8v11.5c0,0.4-0.1,0.8-0.3,1
		c-0.2,0.2-0.5,0.3-0.9,0.3h-4.1c-0.5,0-0.8-0.1-1-0.3c-0.2-0.2-0.3-0.5-0.3-1V26.6c0-0.5-0.1-1-0.3-1.4c-0.2-0.4-0.5-0.8-0.8-1.1
		c-0.3-0.3-0.7-0.6-1.2-0.8c-0.4-0.2-0.9-0.3-1.4-0.3c-0.4,0-0.8,0.1-1.2,0.3c-0.4,0.2-0.8,0.4-1.1,0.7c-0.3,0.3-0.6,0.7-0.8,1.1
		c-0.2,0.4-0.3,0.9-0.4,1.4v11.6c0,0.2,0,0.4-0.1,0.6c-0.1,0.2-0.2,0.4-0.3,0.5c-0.2,0.1-0.3,0.2-0.4,0.2c-0.1,0-0.3,0.1-0.5,0.1h-4
		c-0.5,0-0.9-0.1-1.1-0.4c-0.2-0.2-0.3-0.6-0.3-1V23.8v-0.1v-5.2v-0.1v-6.5c0-0.4,0.1-0.7,0.3-1c0.2-0.2,0.6-0.4,1.1-0.4h4
		c0.3,0,0.6,0.1,0.9,0.3c0.2,0.1,0.3,0.3,0.3,0.5c0.1,0.2,0.1,0.4,0.1,0.6V19.4z"/>
	<path class="st0" d="M290.5,36.8c-1,0.9-2.2,1.7-3.5,2.2c-1.3,0.5-2.7,0.8-4.1,0.8c-1.6,0-3.1-0.3-4.6-0.9
		c-1.4-0.6-2.7-1.4-3.8-2.4c-1.1-1-1.9-2.3-2.6-3.7c-0.6-1.4-0.9-2.9-0.9-4.6c0-1,0.1-2,0.4-3c0.3-1,0.6-1.9,1.1-2.7
		c0.5-0.8,1-1.6,1.7-2.3c0.7-0.7,1.4-1.3,2.2-1.8c0.8-0.5,1.7-0.9,2.7-1.2c1-0.3,2-0.4,3-0.4c1,0,1.9,0.1,2.8,0.4
		c0.9,0.3,1.8,0.6,2.6,1.1c0.8,0.5,1.5,1,2.2,1.7c0.7,0.7,1.2,1.4,1.7,2.2c0.5,0.8,0.9,1.6,1.1,2.5c0.3,0.9,0.4,1.8,0.4,2.7
		c0,0.6,0,1.1,0,1.5c0,0.4-0.1,0.7-0.3,0.9c-0.2,0.2-0.4,0.4-0.8,0.5c-0.4,0.1-0.9,0.1-1.7,0.1h-12.7c0.1,0.8,0.4,1.4,0.7,1.9
		c0.4,0.5,0.8,0.9,1.2,1.2c0.5,0.3,1,0.5,1.5,0.6c0.5,0.1,1,0.2,1.5,0.2c0.4,0,0.9,0,1.3-0.1c0.4-0.1,0.9-0.2,1.3-0.4
		c0.4-0.1,0.8-0.3,1.1-0.5c0.3-0.2,0.6-0.4,0.8-0.6c0.2-0.2,0.3-0.3,0.5-0.3c0.1-0.1,0.3-0.1,0.4-0.1s0.3,0.1,0.5,0.2
		c0.2,0.1,0.3,0.3,0.5,0.5l1.9,2.1c0.1,0.2,0.2,0.3,0.2,0.4c0,0.1,0.1,0.2,0.1,0.4c0,0.2-0.1,0.4-0.2,0.6
		C290.8,36.5,290.7,36.6,290.5,36.8 M282,22.1c-0.5,0-0.9,0.1-1.3,0.3c-0.4,0.2-0.8,0.4-1.2,0.7c-0.4,0.3-0.7,0.7-1,1
		c-0.3,0.4-0.5,0.8-0.7,1.2h9c-0.2-0.5-0.5-0.9-0.8-1.3c-0.3-0.4-0.6-0.7-1-1c-0.4-0.3-0.8-0.5-1.3-0.7
		C283.2,22.2,282.7,22.1,282,22.1"/>
	<path class="st0" d="M295.3,18.4c0-0.2,0-0.4,0.1-0.6c0.1-0.2,0.2-0.3,0.3-0.4c0.1-0.1,0.3-0.2,0.5-0.2c0.2-0.1,0.3-0.1,0.5-0.1
		h2.7c0.3,0,0.5,0.1,0.7,0.3c0.2,0.2,0.3,0.4,0.4,0.7c0.1,0.3,0.2,0.6,0.3,0.9c0.1,0.3,0.2,0.6,0.3,0.9c0.4-0.4,0.7-0.8,1-1.1
		c0.3-0.4,0.7-0.7,1.1-1c0.4-0.3,0.8-0.5,1.3-0.7c0.5-0.2,1-0.3,1.6-0.3c0.6,0,1.2,0,1.7,0.1c0.5,0.1,1,0.2,1.4,0.4
		c0.4,0.2,0.9,0.4,1.3,0.7c0.4,0.3,0.9,0.6,1.4,1c0.5,0.3,0.8,0.6,0.8,1c0,0.3-0.1,0.6-0.3,0.9l-1.6,2.7c-0.3,0.5-0.7,0.7-1.2,0.7
		c-0.2,0-0.5-0.1-0.8-0.2c-0.5-0.5-1-0.9-1.5-1.1c-0.5-0.2-1.1-0.4-1.8-0.4c-0.5,0-0.9,0.1-1.2,0.2c-0.3,0.1-0.7,0.3-0.9,0.5
		c-0.3,0.2-0.5,0.5-0.8,0.8c-0.2,0.3-0.5,0.7-0.7,1.1v12.7c0,0.4-0.1,0.8-0.3,1c-0.2,0.2-0.6,0.3-1.1,0.3h-4c-0.9,0-1.4-0.5-1.4-1.4
		V18.4z"/>
	<path class="st0" d="M316.5,32.5c0.3,0.3,0.7,0.6,1,0.8c0.4,0.2,0.7,0.4,1.1,0.5c0.3,0.1,0.6,0.2,0.9,0.3c0.3,0.1,0.4,0.1,0.5,0.1
		c0.2,0,0.5,0,0.9,0c0.3,0,0.7-0.1,1-0.2c0.3-0.1,0.6-0.2,0.8-0.4c0.2-0.2,0.3-0.5,0.3-0.8c0-0.3-0.1-0.6-0.2-0.8
		c-0.1-0.2-0.3-0.4-0.6-0.5c-0.2-0.1-0.5-0.3-0.9-0.4c-0.4-0.1-0.8-0.2-1.2-0.4c-1.4-0.4-2.6-0.8-3.5-1.4c-0.9-0.5-1.6-1.1-2.2-1.8
		c-0.5-0.7-0.9-1.4-1.1-2.1c-0.2-0.8-0.3-1.5-0.3-2.4c0-1,0.2-1.9,0.6-2.7c0.4-0.8,0.9-1.5,1.7-2c0.7-0.6,1.6-1,2.6-1.3
		c1-0.3,2.1-0.5,3.3-0.5c0.7,0,1.4,0.1,2.1,0.2c0.6,0.1,1.3,0.3,1.8,0.6c0.6,0.3,1.2,0.6,1.7,1c0.6,0.4,1.1,0.9,1.7,1.5
		c0.2,0.2,0.3,0.5,0.3,0.7c0,0.2-0.1,0.4-0.4,0.7c-0.5,0.4-0.9,0.7-1.3,1.1c-0.4,0.4-0.8,0.8-1.3,1.2c-0.1,0.1-0.3,0.2-0.4,0.2
		c-0.1,0-0.3,0-0.4,0c-0.1,0-0.3-0.1-0.4-0.2c-0.1-0.1-0.2-0.2-0.3-0.3c-0.4-0.5-0.9-0.8-1.4-0.9c-0.5-0.2-1-0.2-1.5-0.2
		c-0.6,0-1,0.1-1.4,0.3c-0.3,0.2-0.5,0.5-0.5,0.9c0,0.3,0.1,0.5,0.3,0.7c0.2,0.2,0.5,0.3,0.8,0.4c0.3,0.1,0.6,0.2,0.9,0.3
		c0.3,0.1,0.6,0.1,0.9,0.2c1.1,0.3,2,0.7,2.9,1.1c0.9,0.4,1.6,0.9,2.3,1.5s1.1,1.3,1.5,2.1c0.4,0.8,0.5,1.8,0.5,3
		c0,1.2-0.2,2.2-0.7,3.1c-0.5,0.9-1.1,1.7-1.9,2.3c-0.8,0.6-1.8,1.1-2.9,1.4c-1.1,0.3-2.3,0.5-3.6,0.5c-0.7,0-1.5-0.1-2.2-0.2
		c-0.8-0.1-1.5-0.3-2.2-0.6c-0.7-0.3-1.4-0.7-2-1.1c-0.6-0.5-1.2-1-1.7-1.6c-0.1-0.2-0.2-0.3-0.3-0.5c-0.1-0.2-0.1-0.4-0.1-0.5
		c0-0.2,0-0.3,0.1-0.5c0.1-0.1,0.2-0.3,0.3-0.4l2.3-2.3c0.3-0.2,0.5-0.3,0.7-0.2C315.9,32,316.2,32.2,316.5,32.5"/>
	<polygon class="st0" points="37.4,32.7 41.3,36.5 47.9,29.8 37.4,19.3 26.9,29.8 33.6,36.5 	"/>
	<polygon class="st0" points="54.6,36.5 47.9,43.2 50.8,46 37.4,59.3 24.1,46 24.1,46 7.6,29.5 0.9,36.2 37.4,72.7 64.1,46 	"/>
	<polygon class="st1" points="37.4,0.3 10.8,27 17.4,33.7 24.1,27 35,16.1 37.4,13.7 50.8,27 47.9,29.8 41.3,36.5 37.4,40.3 
		33.6,36.5 26.9,29.8 26.9,43.2 37.4,53.7 47.9,43.2 54.6,36.5 64.1,27 	"/>
	<g>
		<path class="st0" d="M83.1,50.6h7.2v1.5h-2.8v7.4h-1.7v-7.4h-2.8V50.6z"/>
		<path class="st0" d="M97.6,59.5v-0.8c-0.2,0.3-0.5,0.5-0.9,0.7c-0.4,0.2-0.8,0.2-1.3,0.2c-0.5,0-0.9-0.1-1.2-0.3
			c-0.4-0.2-0.6-0.4-0.8-0.8c-0.2-0.3-0.3-0.7-0.3-1.1c0-0.6,0.2-1.1,0.7-1.5c0.4-0.4,1.1-0.5,1.9-0.6h2v-0.2c0-0.4-0.1-0.7-0.4-0.9
			S96.6,54,96.1,54c-0.6,0-1.3,0.2-2,0.6l-0.6-1.1c0.5-0.3,1-0.5,1.5-0.6c0.4-0.1,0.9-0.2,1.5-0.2c0.9,0,1.6,0.2,2,0.6
			c0.5,0.4,0.7,1,0.7,1.8l0,4.4H97.6z M97,58c0.3-0.2,0.5-0.5,0.6-0.8v-0.6h-1.7c-0.4,0-0.8,0.1-1,0.2c-0.2,0.1-0.3,0.3-0.3,0.6
			c0,0.3,0.1,0.5,0.3,0.7c0.2,0.2,0.5,0.3,0.9,0.3C96.3,58.3,96.7,58.2,97,58z"/>
		<path class="st0" d="M109.6,52.7v6.1c0,0.6-0.1,1.2-0.4,1.7c-0.3,0.5-0.7,0.8-1.2,1.1c-0.5,0.3-1.2,0.4-1.9,0.4
			c-1,0-2-0.3-2.9-0.9l0.7-1.2c0.6,0.5,1.3,0.7,2.1,0.7c0.6,0,1.1-0.2,1.5-0.5c0.4-0.3,0.5-0.7,0.5-1.3v-0.8
			c-0.2,0.3-0.5,0.6-0.9,0.8c-0.4,0.2-0.8,0.3-1.3,0.3c-0.6,0-1.1-0.1-1.6-0.4c-0.5-0.3-0.8-0.7-1.1-1.2c-0.3-0.5-0.4-1.1-0.4-1.7
			c0-0.6,0.1-1.2,0.4-1.7c0.3-0.5,0.6-0.9,1.1-1.1c0.5-0.3,1-0.4,1.6-0.4c0.5,0,0.9,0.1,1.3,0.3c0.4,0.2,0.7,0.4,0.9,0.8v-1H109.6z
			 M107.4,57.3c0.3-0.4,0.5-0.8,0.5-1.4c0-0.6-0.2-1-0.5-1.4c-0.3-0.4-0.8-0.5-1.3-0.5s-1,0.2-1.3,0.5c-0.3,0.4-0.5,0.8-0.5,1.4
			c0,0.6,0.2,1,0.5,1.4c0.3,0.4,0.8,0.5,1.3,0.5S107.1,57.7,107.4,57.3z"/>
		<path class="st0" d="M121.2,61.6c-0.4,0.3-0.9,0.4-1.4,0.4c-0.3,0-0.6,0-0.9-0.1c-0.3-0.1-0.5-0.3-0.8-0.5l0.7-1.3
			c0.2,0.1,0.3,0.2,0.4,0.3c0.1,0.1,0.3,0.1,0.4,0.1c0.4,0,0.8-0.2,1-0.7l0.2-0.4l-2.8-6.7h1.7l1.9,4.9l1.8-4.9h1.7l-3,7.6
			C121.9,60.9,121.6,61.3,121.2,61.6z"/>
		<path class="st0" d="M132.9,53.1c0.5,0.3,1,0.7,1.3,1.2c0.3,0.5,0.5,1.1,0.5,1.8c0,0.7-0.2,1.3-0.5,1.8c-0.3,0.5-0.7,0.9-1.3,1.2
			c-0.5,0.3-1.2,0.4-1.9,0.4c-0.7,0-1.3-0.1-1.9-0.4s-1-0.7-1.3-1.2c-0.3-0.5-0.4-1.1-0.4-1.8c0-0.7,0.1-1.3,0.4-1.8
			c0.3-0.5,0.7-0.9,1.3-1.2c0.5-0.3,1.2-0.4,1.9-0.4C131.8,52.7,132.4,52.8,132.9,53.1z M129.7,54.7c-0.4,0.4-0.5,0.9-0.5,1.5
			c0,0.6,0.2,1.1,0.5,1.5c0.4,0.4,0.8,0.6,1.4,0.6c0.6,0,1-0.2,1.4-0.6c0.4-0.4,0.5-0.9,0.5-1.5c0-0.6-0.2-1.1-0.5-1.5
			c-0.4-0.4-0.8-0.6-1.4-0.6C130.5,54.1,130,54.3,129.7,54.7z"/>
		<path class="st0" d="M144.6,52.7v6.8h-1.7v-1.3c-0.5,0.9-1.2,1.3-2.4,1.3c-0.8,0-1.4-0.2-1.8-0.7c-0.4-0.5-0.7-1.1-0.7-1.9v-4.2
			h1.7v3.8c0,0.5,0.1,0.8,0.4,1.1c0.3,0.3,0.6,0.4,1.1,0.4c0.5,0,0.9-0.2,1.2-0.6c0.3-0.4,0.5-0.8,0.5-1.4v-3.3H144.6z"/>
		<path class="st0" d="M151.5,53c0.4-0.2,0.9-0.4,1.4-0.4v1.6c-0.7,0-1.3,0.1-1.7,0.5c-0.4,0.4-0.6,0.9-0.6,1.5v3.3h-1.6v-6.8h1.6
			V54C150.8,53.6,151.1,53.3,151.5,53z"/>
		<path class="st0" d="M161.8,50.1h1.6v9.4h-1.6V50.1z"/>
		<path class="st0" d="M173.1,53.6c0.5,0.6,0.8,1.5,0.8,2.6c0,0.2,0,0.4,0,0.5h-5c0.1,0.5,0.3,0.9,0.7,1.1c0.3,0.3,0.8,0.4,1.3,0.4
			c0.3,0,0.7-0.1,1-0.2c0.3-0.1,0.6-0.3,0.8-0.6l0.9,0.9c-0.3,0.4-0.7,0.7-1.2,0.9c-0.5,0.2-1,0.3-1.6,0.3c-0.7,0-1.3-0.1-1.8-0.4
			c-0.5-0.3-0.9-0.7-1.2-1.2c-0.3-0.5-0.4-1.1-0.4-1.8c0-0.7,0.1-1.3,0.4-1.8c0.3-0.5,0.7-0.9,1.2-1.2c0.5-0.3,1.1-0.4,1.8-0.4
			C171.7,52.7,172.5,53,173.1,53.6z M172.4,55.6c0-0.5-0.2-0.9-0.5-1.2c-0.3-0.3-0.7-0.4-1.2-0.4c-0.5,0-0.9,0.1-1.2,0.4
			c-0.3,0.3-0.5,0.7-0.6,1.2H172.4z"/>
		<path class="st0" d="M183.8,52.7v6.1c0,0.6-0.1,1.2-0.4,1.7c-0.3,0.5-0.7,0.8-1.2,1.1c-0.5,0.3-1.2,0.4-1.9,0.4
			c-1,0-2-0.3-2.9-0.9l0.7-1.2c0.6,0.5,1.3,0.7,2.1,0.7c0.6,0,1.1-0.2,1.5-0.5c0.4-0.3,0.5-0.7,0.5-1.3v-0.8
			c-0.2,0.3-0.5,0.6-0.9,0.8c-0.4,0.2-0.8,0.3-1.3,0.3c-0.6,0-1.1-0.1-1.6-0.4c-0.5-0.3-0.8-0.7-1.1-1.2c-0.3-0.5-0.4-1.1-0.4-1.7
			c0-0.6,0.1-1.2,0.4-1.7c0.3-0.5,0.6-0.9,1.1-1.1c0.5-0.3,1-0.4,1.6-0.4c0.5,0,0.9,0.1,1.3,0.3c0.4,0.2,0.7,0.4,0.9,0.8v-1H183.8z
			 M181.7,57.3c0.3-0.4,0.5-0.8,0.5-1.4c0-0.6-0.2-1-0.5-1.4c-0.3-0.4-0.8-0.5-1.3-0.5c-0.5,0-1,0.2-1.3,0.5
			c-0.3,0.4-0.5,0.8-0.5,1.4c0,0.6,0.2,1,0.5,1.4c0.3,0.4,0.8,0.5,1.3,0.5C180.9,57.9,181.3,57.7,181.7,57.3z"/>
		<path class="st0" d="M192,59.5v-0.8c-0.2,0.3-0.5,0.5-0.9,0.7c-0.4,0.2-0.8,0.2-1.3,0.2c-0.5,0-0.9-0.1-1.2-0.3
			c-0.4-0.2-0.6-0.4-0.8-0.8c-0.2-0.3-0.3-0.7-0.3-1.1c0-0.6,0.2-1.1,0.7-1.5c0.4-0.4,1.1-0.5,1.9-0.6h2v-0.2c0-0.4-0.1-0.7-0.4-0.9
			S191,54,190.5,54c-0.6,0-1.3,0.2-2,0.6l-0.6-1.1c0.5-0.3,1-0.5,1.5-0.6c0.4-0.1,0.9-0.2,1.5-0.2c0.9,0,1.6,0.2,2,0.6
			s0.7,1,0.7,1.8l0,4.4H192z M191.4,58c0.3-0.2,0.5-0.5,0.6-0.8v-0.6h-1.7c-0.4,0-0.8,0.1-1,0.2c-0.2,0.1-0.3,0.3-0.3,0.6
			c0,0.3,0.1,0.5,0.3,0.7c0.2,0.2,0.5,0.3,0.9,0.3C190.7,58.3,191.1,58.2,191.4,58z"/>
		<path class="st0" d="M197.8,50.1h1.6v9.4h-1.6V50.1z"/>
		<path class="st0" d="M208.2,52.7l1.7,0l1.7,5.1l1.6-5.1h1.7l1.6,5.1l1.6-5.1h1.7l-2.5,6.8h-1.7l-1.6-4.8l-1.6,4.8h-1.7L208.2,52.7
			z"/>
		<path class="st0" d="M227.6,53.1c0.5,0.3,1,0.7,1.3,1.2c0.3,0.5,0.5,1.1,0.5,1.8c0,0.7-0.2,1.3-0.5,1.8c-0.3,0.5-0.7,0.9-1.3,1.2
			s-1.2,0.4-1.9,0.4c-0.7,0-1.3-0.1-1.9-0.4c-0.5-0.3-1-0.7-1.3-1.2c-0.3-0.5-0.5-1.1-0.5-1.8c0-0.7,0.2-1.3,0.5-1.8
			c0.3-0.5,0.7-0.9,1.3-1.2c0.5-0.3,1.2-0.4,1.9-0.4C226.5,52.7,227.1,52.8,227.6,53.1z M224.4,54.7c-0.4,0.4-0.5,0.9-0.5,1.5
			c0,0.6,0.2,1.1,0.5,1.5c0.4,0.4,0.8,0.6,1.4,0.6c0.6,0,1-0.2,1.4-0.6c0.4-0.4,0.5-0.9,0.5-1.5c0-0.6-0.2-1.1-0.5-1.5
			c-0.4-0.4-0.8-0.6-1.4-0.6C225.2,54.1,224.7,54.3,224.4,54.7z"/>
		<path class="st0" d="M235.6,53c0.4-0.2,0.9-0.4,1.4-0.4v1.6c-0.7,0-1.3,0.1-1.7,0.5c-0.4,0.4-0.6,0.9-0.6,1.5v3.3H233v-6.8h1.6V54
			C234.9,53.6,235.2,53.3,235.6,53z"/>
		<path class="st0" d="M243,53c0.4-0.2,0.9-0.4,1.4-0.4v1.6c-0.7,0-1.3,0.1-1.7,0.5c-0.4,0.4-0.6,0.9-0.6,1.5v3.3h-1.6v-6.8h1.6V54
			C242.3,53.6,242.6,53.3,243,53z"/>
		<path class="st0" d="M249.3,50.1c0.2,0.2,0.3,0.4,0.3,0.7c0,0.3-0.1,0.5-0.3,0.7c-0.2,0.2-0.4,0.3-0.7,0.3c-0.3,0-0.5-0.1-0.7-0.3
			c-0.2-0.2-0.3-0.4-0.3-0.7c0-0.3,0.1-0.5,0.3-0.7c0.2-0.2,0.4-0.3,0.7-0.3C248.9,49.8,249.1,49.9,249.3,50.1z M247.8,52.7h1.6v6.8
			h-1.6V52.7z"/>
		<path class="st0" d="M259,53.6c0.5,0.6,0.8,1.5,0.8,2.6c0,0.2,0,0.4,0,0.5h-5c0.1,0.5,0.3,0.9,0.7,1.1c0.3,0.3,0.8,0.4,1.3,0.4
			c0.3,0,0.7-0.1,1-0.2c0.3-0.1,0.6-0.3,0.8-0.6l0.9,0.9c-0.3,0.4-0.7,0.7-1.2,0.9c-0.5,0.2-1,0.3-1.6,0.3c-0.7,0-1.3-0.1-1.8-0.4
			c-0.5-0.3-0.9-0.7-1.2-1.2c-0.3-0.5-0.4-1.1-0.4-1.8c0-0.7,0.1-1.3,0.4-1.8c0.3-0.5,0.7-0.9,1.2-1.2c0.5-0.3,1.1-0.4,1.8-0.4
			C257.7,52.7,258.5,53,259,53.6z M258.4,55.6c0-0.5-0.2-0.9-0.5-1.2c-0.3-0.3-0.7-0.4-1.2-0.4c-0.5,0-0.9,0.1-1.2,0.4
			c-0.3,0.3-0.5,0.7-0.6,1.2H258.4z"/>
		<path class="st0" d="M266.6,54.1c-0.4-0.1-0.7-0.2-1-0.2c-0.3,0-0.5,0-0.7,0.1s-0.2,0.2-0.2,0.4c0,0.2,0.1,0.4,0.3,0.5
			c0.2,0.1,0.5,0.2,1,0.4c0.5,0.1,0.9,0.3,1.2,0.4c0.3,0.1,0.6,0.3,0.8,0.6c0.2,0.3,0.3,0.6,0.3,1.1c0,0.7-0.3,1.2-0.8,1.5
			c-0.5,0.4-1.1,0.5-1.9,0.5c-0.5,0-1-0.1-1.5-0.2c-0.5-0.2-0.9-0.4-1.3-0.7l0.6-1.2c0.3,0.3,0.7,0.5,1.1,0.6
			c0.4,0.1,0.8,0.2,1.2,0.2c0.3,0,0.5-0.1,0.7-0.2c0.2-0.1,0.3-0.3,0.3-0.5c0-0.2-0.1-0.4-0.3-0.5c-0.2-0.1-0.6-0.2-1-0.4
			c-0.5-0.1-0.8-0.3-1.1-0.4c-0.3-0.1-0.5-0.3-0.7-0.6c-0.2-0.3-0.3-0.6-0.3-1c0-0.7,0.2-1.2,0.7-1.5c0.5-0.4,1.1-0.5,1.8-0.5
			c0.4,0,0.9,0.1,1.3,0.2c0.4,0.1,0.8,0.3,1.2,0.5l-0.6,1.2C267.3,54.4,266.9,54.2,266.6,54.1z"/>
	</g>
</g>
</svg>
