<?xml version="1.0" encoding="utf-8"?>
<!-- Generator: Adobe Illustrator 19.2.0, SVG Export Plug-In . SVG Version: 6.00 Build 0)  -->
<svg version="1.1" id="Layer_1" xmlns="http://www.w3.org/2000/svg" xmlns:xlink="http://www.w3.org/1999/xlink" x="0px" y="0px"
	 viewBox="0 0 328.5 72.3" style="enable-background:new 0 0 328.5 72.3;" xml:space="preserve">
<style type="text/css">
	.st0{fill:#FFFFFF;}
	.st1{fill:#A7A9AC;}
</style>
<path class="st0" d="M81.9,13.8c0-0.2,0.1-0.4,0.2-0.5c0.1-0.2,0.3-0.2,0.6-0.2h5.2c0.2,0,0.4,0.1,0.5,0.2c0.2,0.1,0.3,0.3,0.3,0.6
	v19.1h9.7c0.2,0,0.4,0.1,0.5,0.2c0.2,0.1,0.2,0.3,0.2,0.6v4.6c0,0.2-0.1,0.4-0.2,0.5c-0.1,0.2-0.3,0.3-0.6,0.3H82.7
	c-0.5,0-0.8-0.3-0.8-0.8V13.8z"/>
<path class="st0" d="M124.1,37.8c0,0.2,0,0.4-0.1,0.6c-0.1,0.2-0.2,0.3-0.4,0.4c-0.1,0.1-0.3,0.2-0.5,0.2c-0.2,0-0.3,0.1-0.5,0.1
	h-3.5c-0.2,0-0.4,0-0.6-0.1c-0.2-0.1-0.3-0.2-0.4-0.3c-0.1-0.1-0.2-0.3-0.2-0.4c-0.1-0.2-0.1-0.4-0.2-0.6l-0.2-0.8
	c-0.3,0.3-0.7,0.6-1.1,0.9c-0.4,0.3-0.8,0.6-1.3,0.8c-0.5,0.2-1,0.4-1.6,0.6c-0.6,0.1-1.1,0.2-1.7,0.2c-1.1,0-2.1-0.1-3.1-0.4
	c-1-0.3-1.9-0.7-2.7-1.2c-0.8-0.5-1.6-1.1-2.3-1.8c-0.7-0.7-1.3-1.5-1.8-2.3c-0.5-0.9-0.9-1.8-1.1-2.8c-0.3-1-0.4-2-0.4-3.1
	c0-1.6,0.3-3.1,0.9-4.5c0.6-1.4,1.4-2.6,2.4-3.7c1-1,2.2-1.8,3.6-2.4c1.4-0.6,2.9-0.9,4.5-0.9c0.7,0,1.4,0.1,2,0.2
	c0.6,0.2,1.2,0.4,1.7,0.7c0.5,0.3,1,0.6,1.4,1c0.4,0.4,0.8,0.8,1.1,1.3l0.5-1.6c0.1-0.3,0.2-0.5,0.3-0.7c0.1-0.2,0.2-0.3,0.2-0.4
	c0.1-0.1,0.2-0.1,0.3-0.2c0.1,0,0.3,0,0.5,0h2.6c0.1,0,0.3,0,0.5,0.1c0.2,0,0.3,0.1,0.5,0.2c0.2,0.1,0.3,0.3,0.4,0.4
	s0.1,0.4,0.1,0.6V37.8z M106.8,27.9c0,0.8,0.1,1.5,0.4,2.2c0.2,0.7,0.6,1.3,1,1.7c0.4,0.5,1,0.9,1.6,1.2c0.6,0.3,1.3,0.4,2.1,0.4
	c0.8,0,1.5-0.1,2.2-0.4c0.7-0.3,1.3-0.7,1.8-1.2c0.5-0.5,0.9-1.1,1.2-1.7c0.3-0.7,0.4-1.4,0.4-2.2c0-0.7-0.1-1.5-0.4-2.1
	c-0.3-0.7-0.7-1.3-1.2-1.8c-0.5-0.5-1.1-0.9-1.8-1.2c-0.7-0.3-1.4-0.4-2.2-0.4c-0.8,0-1.5,0.2-2.1,0.4c-0.6,0.3-1.2,0.7-1.6,1.2
	c-0.4,0.5-0.8,1.1-1,1.8C106.9,26.5,106.8,27.2,106.8,27.9"/>
<path class="st0" d="M125.5,18.5c-0.2-0.5-0.3-0.9-0.1-1.2c0.1-0.3,0.5-0.5,1-0.5h4.5c0.3,0,0.6,0.1,0.8,0.2
	c0.2,0.2,0.4,0.4,0.5,0.7c0.2,0.6,0.4,1.3,0.7,2.1c0.2,0.8,0.5,1.5,0.8,2.3c0.3,0.8,0.5,1.6,0.8,2.4c0.3,0.8,0.5,1.5,0.7,2.2
	c0.2,0.7,0.4,1.2,0.6,1.7c0.2,0.5,0.3,0.8,0.4,1.1l3.7-11.7c0.2-0.4,0.3-0.6,0.5-0.8c0.2-0.1,0.5-0.2,0.8-0.2h4.2
	c0.3,0,0.6,0,0.8,0.1c0.2,0.1,0.3,0.2,0.4,0.3c0.1,0.1,0.1,0.3,0,0.5c0,0.2-0.1,0.4-0.2,0.6l-1.9,4.7c0.1,0.2,0.2,0.5,0.5,1
	c0.2,0.5,0.5,1,0.8,1.6c0.3,0.6,0.6,1.2,0.9,1.9c0.3,0.7,0.6,1.3,0.8,1.9l4.3-11.7c0.2-0.4,0.3-0.6,0.5-0.8c0.2-0.1,0.4-0.2,0.7-0.2
	h3.9c0.6,0,0.9,0.1,1.2,0.3s0.2,0.6,0,1.2l-8.2,20c-0.1,0.2-0.3,0.4-0.5,0.5c-0.2,0.1-0.5,0.2-0.9,0.2h-1.8c-0.5,0-0.8-0.1-1-0.2
	c-0.2-0.1-0.4-0.3-0.5-0.6l-3.3-8l-3.2,8c-0.1,0.2-0.3,0.4-0.5,0.5c-0.2,0.1-0.4,0.2-0.8,0.2H135c-0.5,0-0.8-0.1-1-0.2
	c-0.2-0.1-0.3-0.3-0.4-0.6L125.5,18.5z"/>
<path class="st0" d="M169.6,13.8c0-0.2,0.1-0.4,0.2-0.6c0.1-0.1,0.3-0.2,0.6-0.2H182c1,0,2,0.2,2.9,0.6c0.9,0.4,1.7,0.9,2.4,1.6
	c0.7,0.7,1.2,1.5,1.6,2.4c0.4,0.9,0.6,1.9,0.6,3c0,0.9-0.1,1.7-0.4,2.4c-0.3,0.8-0.7,1.4-1.2,2c0.8,0.8,1.5,1.7,2,2.8
	c0.5,1.1,0.7,2.2,0.7,3.4c0,1.1-0.2,2.1-0.6,3c-0.4,1-1,1.8-1.7,2.5c-0.7,0.7-1.5,1.3-2.4,1.7c-0.9,0.4-1.9,0.6-2.9,0.6h-12.7
	c-0.2,0-0.4-0.1-0.6-0.2c-0.1-0.1-0.2-0.3-0.2-0.6V13.8z M182.8,20.7c0-0.4-0.1-0.7-0.2-1c-0.1-0.3-0.3-0.6-0.5-0.8
	c-0.2-0.2-0.5-0.4-0.8-0.6c-0.3-0.1-0.7-0.2-1.1-0.2h-3.8v5.1h3.7c0.4,0,0.8-0.1,1.1-0.2c0.3-0.1,0.6-0.3,0.9-0.5
	c0.2-0.2,0.4-0.5,0.6-0.8C182.7,21.5,182.8,21.1,182.8,20.7 M183.7,30.9c0-0.4-0.1-0.7-0.2-1.1c-0.1-0.4-0.3-0.7-0.6-0.9
	c-0.2-0.3-0.5-0.5-0.9-0.7c-0.3-0.2-0.7-0.3-1.1-0.3h-4.6v5.9h4.6c0.4,0,0.7-0.1,1.1-0.2c0.3-0.2,0.6-0.4,0.9-0.7
	c0.2-0.3,0.4-0.6,0.6-0.9C183.7,31.7,183.7,31.3,183.7,30.9"/>
<path class="st0" d="M192.2,18.1c0-0.2,0-0.4,0.1-0.6c0.1-0.2,0.2-0.3,0.3-0.4c0.1-0.1,0.3-0.2,0.5-0.2c0.2-0.1,0.3-0.1,0.5-0.1h2.7
	c0.3,0,0.5,0.1,0.7,0.3c0.2,0.2,0.3,0.4,0.4,0.7c0.1,0.3,0.2,0.6,0.3,0.9c0.1,0.3,0.2,0.6,0.3,1c0.4-0.4,0.7-0.8,1-1.1
	c0.3-0.4,0.7-0.7,1.1-1c0.4-0.3,0.8-0.5,1.3-0.7c0.5-0.2,1-0.3,1.6-0.3c0.6,0,1.2,0,1.7,0.1c0.5,0.1,1,0.2,1.4,0.4
	c0.4,0.2,0.9,0.4,1.3,0.7c0.4,0.3,0.9,0.6,1.4,1c0.5,0.3,0.8,0.6,0.8,1c0,0.3-0.1,0.6-0.3,0.9l-1.6,2.7c-0.3,0.5-0.7,0.7-1.2,0.7
	c-0.2,0-0.5-0.1-0.8-0.2c-0.5-0.5-1-0.9-1.5-1.1c-0.5-0.2-1.1-0.4-1.8-0.4c-0.5,0-0.9,0.1-1.2,0.2c-0.3,0.1-0.7,0.3-0.9,0.5
	c-0.3,0.2-0.5,0.5-0.8,0.8c-0.2,0.3-0.5,0.7-0.7,1.1v12.7c0,0.4-0.1,0.8-0.3,1c-0.2,0.2-0.6,0.3-1.1,0.3h-3.9
	c-0.9,0-1.4-0.4-1.4-1.4V18.1z"/>
<path class="st0" d="M209.8,27.9c0-1.1,0.1-2.1,0.4-3.1c0.3-1,0.7-1.9,1.2-2.8c0.5-0.8,1.1-1.6,1.8-2.3c0.7-0.7,1.5-1.3,2.3-1.8
	c0.9-0.5,1.8-0.9,2.8-1.1c1-0.3,2-0.4,3.1-0.4c1.6,0,3.1,0.3,4.5,0.9c1.4,0.6,2.6,1.4,3.7,2.4c1,1,1.9,2.3,2.5,3.7
	c0.6,1.4,0.9,2.9,0.9,4.5c0,1.1-0.1,2.1-0.4,3.1c-0.3,1-0.7,1.9-1.2,2.8c-0.5,0.9-1.1,1.6-1.8,2.3c-0.7,0.7-1.5,1.3-2.3,1.8
	c-0.9,0.5-1.8,0.9-2.7,1.2c-1,0.3-2,0.4-3.1,0.4c-1.1,0-2.1-0.1-3.1-0.4c-1-0.3-1.9-0.7-2.8-1.2c-0.9-0.5-1.6-1.1-2.3-1.8
	c-0.7-0.7-1.3-1.5-1.8-2.3c-0.5-0.9-0.9-1.8-1.2-2.8C210,30.1,209.8,29,209.8,27.9 M216.2,27.9c0,0.8,0.1,1.5,0.4,2.2
	c0.2,0.7,0.6,1.3,1,1.7c0.4,0.5,1,0.9,1.6,1.2c0.6,0.3,1.3,0.4,2.1,0.4c0.8,0,1.4-0.1,2.1-0.4c0.6-0.3,1.1-0.7,1.6-1.2
	c0.4-0.5,0.8-1.1,1-1.7c0.2-0.7,0.3-1.4,0.3-2.2c0-0.7-0.1-1.5-0.3-2.1c-0.2-0.7-0.6-1.3-1-1.8c-0.4-0.5-0.9-0.9-1.6-1.2
	c-0.6-0.3-1.3-0.4-2.1-0.4c-0.8,0-1.5,0.2-2.1,0.4c-0.6,0.3-1.2,0.7-1.6,1.2c-0.4,0.5-0.8,1.1-1,1.8
	C216.4,26.5,216.2,27.2,216.2,27.9"/>
<path class="st0" d="M235,13.3c0-0.4,0.1-0.6,0.4-0.8c0.2-0.2,0.6-0.4,1-0.5l4-1.4c0.1,0,0.1,0,0.2,0h0.1c0.4,0,0.7,0.1,0.9,0.4
	s0.2,0.6,0.2,1l0,4.8h2.4c0.4,0,0.7,0.1,0.9,0.3c0.2,0.2,0.4,0.6,0.4,1v3.4c0,0.5-0.1,0.9-0.4,1.1c-0.2,0.2-0.5,0.3-0.9,0.3h-2.4
	l0,14.8c0,0.4-0.1,0.8-0.4,1c-0.3,0.2-0.6,0.3-1.1,0.3h-4c-0.9,0-1.4-0.4-1.4-1.4l0-14.8h-1.8c-0.9,0-1.4-0.5-1.4-1.4v-3.4
	c0-0.9,0.4-1.3,1.4-1.3h1.8L235,13.3z"/>
<path class="st0" d="M254,19.1c0.2-0.3,0.5-0.7,0.9-1c0.4-0.3,0.8-0.6,1.4-0.9c0.5-0.3,1.1-0.5,1.7-0.6c0.6-0.2,1.3-0.2,2-0.2
	c1.3,0,2.5,0.3,3.5,0.8c1,0.5,1.8,1.2,2.4,2.1c0.6,0.9,1.1,1.9,1.4,3.1c0.3,1.2,0.5,2.5,0.5,3.8v11.5c0,0.4-0.1,0.8-0.3,1
	c-0.2,0.2-0.5,0.3-0.9,0.3h-4.1c-0.5,0-0.8-0.1-1-0.3c-0.2-0.2-0.3-0.5-0.3-1V26.2c0-0.5-0.1-1-0.3-1.4c-0.2-0.4-0.5-0.8-0.8-1.1
	s-0.7-0.6-1.1-0.8c-0.4-0.2-0.9-0.3-1.4-0.3c-0.4,0-0.8,0.1-1.2,0.3c-0.4,0.2-0.8,0.4-1.1,0.7c-0.3,0.3-0.6,0.7-0.8,1.1
	c-0.2,0.4-0.3,0.9-0.4,1.4v11.6c0,0.2,0,0.4-0.1,0.6c-0.1,0.2-0.2,0.4-0.3,0.5c-0.2,0.1-0.3,0.2-0.4,0.2c-0.1,0-0.3,0.1-0.5,0.1h-4
	c-0.5,0-0.9-0.1-1.1-0.4c-0.2-0.2-0.3-0.6-0.3-1V23.4v-0.1v-5.2V18v-6.5c0-0.4,0.1-0.7,0.3-1c0.2-0.2,0.6-0.4,1.1-0.4h4
	c0.3,0,0.6,0.1,0.9,0.3c0.2,0.1,0.3,0.3,0.3,0.5c0.1,0.2,0.1,0.4,0.1,0.6V19.1z"/>
<path class="st0" d="M289.2,36.4c-1,0.9-2.2,1.7-3.5,2.2c-1.3,0.5-2.7,0.8-4.1,0.8c-1.6,0-3.1-0.3-4.5-0.9c-1.4-0.6-2.7-1.4-3.8-2.4
	c-1.1-1-1.9-2.3-2.6-3.7c-0.6-1.4-0.9-2.9-0.9-4.6c0-1,0.1-2,0.4-3c0.3-1,0.6-1.9,1.1-2.7c0.5-0.8,1-1.6,1.7-2.3
	c0.7-0.7,1.4-1.3,2.2-1.8c0.8-0.5,1.7-0.9,2.7-1.2c1-0.3,2-0.4,3-0.4c1,0,1.9,0.1,2.8,0.4c0.9,0.3,1.8,0.6,2.6,1.1
	c0.8,0.5,1.5,1,2.2,1.7c0.7,0.7,1.2,1.4,1.7,2.2c0.5,0.8,0.9,1.6,1.1,2.5c0.3,0.9,0.4,1.8,0.4,2.7c0,0.6,0,1.1,0,1.5
	c0,0.4-0.1,0.7-0.3,0.9c-0.2,0.2-0.4,0.4-0.8,0.5c-0.4,0.1-0.9,0.1-1.7,0.1h-12.6c0.1,0.8,0.4,1.4,0.7,1.9c0.4,0.5,0.8,0.9,1.2,1.2
	c0.5,0.3,1,0.5,1.5,0.6c0.5,0.1,1,0.2,1.5,0.2c0.4,0,0.9,0,1.3-0.1c0.4-0.1,0.9-0.2,1.3-0.3c0.4-0.1,0.8-0.3,1.1-0.5
	c0.3-0.2,0.6-0.4,0.8-0.6c0.2-0.2,0.3-0.3,0.5-0.3c0.1-0.1,0.3-0.1,0.4-0.1c0.2,0,0.3,0.1,0.5,0.2c0.2,0.1,0.3,0.3,0.5,0.5l1.9,2.1
	c0.1,0.2,0.2,0.3,0.2,0.4c0,0.1,0.1,0.2,0.1,0.4c0,0.2-0.1,0.4-0.2,0.6C289.6,36.1,289.4,36.3,289.2,36.4 M280.8,21.8
	c-0.5,0-0.9,0.1-1.3,0.3c-0.4,0.2-0.8,0.4-1.2,0.7c-0.4,0.3-0.7,0.6-1,1c-0.3,0.4-0.5,0.8-0.7,1.2h9c-0.2-0.5-0.5-0.9-0.8-1.3
	c-0.3-0.4-0.6-0.7-1-1s-0.8-0.5-1.3-0.7S281.4,21.8,280.8,21.8"/>
<path class="st0" d="M294,18.1c0-0.2,0-0.4,0.1-0.6c0.1-0.2,0.2-0.3,0.3-0.4c0.1-0.1,0.3-0.2,0.5-0.2c0.2-0.1,0.3-0.1,0.5-0.1h2.7
	c0.3,0,0.5,0.1,0.7,0.3c0.2,0.2,0.3,0.4,0.4,0.7s0.2,0.6,0.3,0.9c0.1,0.3,0.2,0.6,0.3,1c0.4-0.4,0.7-0.8,1-1.1
	c0.3-0.4,0.7-0.7,1.1-1c0.4-0.3,0.8-0.5,1.3-0.7c0.5-0.2,1-0.3,1.6-0.3c0.6,0,1.2,0,1.7,0.1c0.5,0.1,1,0.2,1.4,0.4
	c0.4,0.2,0.9,0.4,1.3,0.7c0.4,0.3,0.9,0.6,1.4,1c0.5,0.3,0.8,0.6,0.8,1c0,0.3-0.1,0.6-0.3,0.9l-1.6,2.7c-0.3,0.5-0.7,0.7-1.2,0.7
	c-0.2,0-0.5-0.1-0.8-0.2c-0.5-0.5-1-0.9-1.5-1.1c-0.5-0.2-1.1-0.4-1.8-0.4c-0.5,0-0.9,0.1-1.2,0.2c-0.3,0.1-0.7,0.3-0.9,0.5
	c-0.3,0.2-0.5,0.5-0.8,0.8c-0.2,0.3-0.5,0.7-0.7,1.1v12.7c0,0.4-0.1,0.8-0.3,1c-0.2,0.2-0.6,0.3-1.1,0.3h-4c-0.9,0-1.4-0.4-1.4-1.4
	V18.1z"/>
<path class="st0" d="M315.2,32.1c0.3,0.3,0.7,0.6,1,0.8c0.4,0.2,0.7,0.4,1.1,0.5c0.3,0.1,0.6,0.2,0.9,0.3c0.3,0.1,0.4,0.1,0.5,0.1
	c0.2,0,0.5,0,0.9,0c0.3,0,0.7-0.1,1-0.2c0.3-0.1,0.6-0.2,0.8-0.4c0.2-0.2,0.3-0.5,0.3-0.8c0-0.3-0.1-0.6-0.2-0.8
	c-0.1-0.2-0.3-0.4-0.6-0.5c-0.2-0.1-0.5-0.3-0.9-0.4c-0.4-0.1-0.8-0.2-1.2-0.4c-1.4-0.4-2.6-0.8-3.5-1.4c-0.9-0.5-1.6-1.1-2.2-1.8
	c-0.5-0.7-0.9-1.4-1.1-2.1c-0.2-0.7-0.3-1.5-0.3-2.4c0-1,0.2-1.9,0.6-2.7c0.4-0.8,0.9-1.5,1.7-2c0.7-0.6,1.6-1,2.6-1.3
	s2.1-0.5,3.3-0.5c0.7,0,1.4,0.1,2.1,0.2c0.6,0.1,1.3,0.3,1.8,0.6c0.6,0.3,1.2,0.6,1.7,1c0.6,0.4,1.1,0.9,1.7,1.5
	c0.2,0.2,0.3,0.5,0.3,0.7s-0.1,0.4-0.4,0.7c-0.5,0.4-0.9,0.7-1.3,1.1s-0.8,0.8-1.3,1.2c-0.1,0.1-0.3,0.2-0.4,0.2c-0.1,0-0.3,0-0.4,0
	c-0.1,0-0.3-0.1-0.4-0.2c-0.1-0.1-0.2-0.2-0.3-0.3c-0.4-0.5-0.9-0.8-1.4-0.9c-0.5-0.2-1-0.2-1.5-0.2c-0.6,0-1,0.1-1.4,0.3
	c-0.3,0.2-0.5,0.5-0.5,0.9c0,0.3,0.1,0.5,0.3,0.7c0.2,0.2,0.5,0.3,0.8,0.4c0.3,0.1,0.6,0.2,0.9,0.3c0.3,0.1,0.6,0.1,0.9,0.2
	c1.1,0.3,2,0.7,2.9,1.1c0.9,0.4,1.6,0.9,2.3,1.5c0.6,0.6,1.1,1.3,1.5,2.1c0.4,0.8,0.5,1.8,0.5,2.9c0,1.2-0.2,2.2-0.7,3.1
	c-0.5,0.9-1.1,1.7-1.9,2.3c-0.8,0.6-1.8,1.1-2.9,1.4c-1.1,0.3-2.3,0.5-3.6,0.5c-0.7,0-1.5-0.1-2.2-0.2c-0.7-0.1-1.5-0.3-2.2-0.6
	c-0.7-0.3-1.4-0.7-2-1.1c-0.6-0.4-1.2-1-1.7-1.6c-0.1-0.2-0.2-0.3-0.3-0.5c-0.1-0.2-0.1-0.4-0.1-0.5c0-0.2,0-0.3,0.1-0.5
	c0.1-0.1,0.2-0.3,0.3-0.4l2.3-2.3c0.3-0.2,0.5-0.3,0.7-0.2C314.6,31.6,314.9,31.8,315.2,32.1"/>
<polygon class="st0" points="36.5,32.3 40.3,36.2 47,29.5 36.5,19 26,29.5 32.7,36.2 "/>
<polygon class="st0" points="53.6,36.2 47,42.8 49.8,45.7 36.5,59 23.2,45.7 23.2,45.7 6.7,29.2 0,35.8 36.5,72.3 63.1,45.7 "/>
<polygon class="st1" points="36.5,0 9.8,26.7 16.5,33.3 23.2,26.7 34.1,15.8 36.5,13.3 49.8,26.7 47,29.5 40.3,36.2 36.5,40 
	32.7,36.2 26,29.5 26,42.8 36.5,53.3 47,42.8 53.6,36.2 63.1,26.7 "/>
<g>
	<path class="st0" d="M88.2,50.1v1.1h-2.4v7.6h-1.4v-7.6h-2.4v-1.1H88.2z"/>
	<path class="st0" d="M98.9,52.3c0.4,0.3,0.7,0.7,0.9,1.2V52h1.4v6.8h-1.4v-1.6c-0.2,0.5-0.5,0.9-0.9,1.2c-0.4,0.3-1,0.5-1.6,0.5
		c-0.6,0-1.1-0.1-1.6-0.4c-0.5-0.3-0.8-0.7-1.1-1.2s-0.4-1.1-0.4-1.9c0-0.7,0.1-1.3,0.4-1.9s0.6-0.9,1.1-1.2c0.5-0.3,1-0.4,1.6-0.4
		C97.9,51.9,98.4,52,98.9,52.3z M96.2,53.7c-0.4,0.4-0.6,0.9-0.6,1.6c0,0.7,0.2,1.2,0.6,1.6s0.9,0.6,1.5,0.6c0.4,0,0.8-0.1,1.1-0.3
		c0.3-0.2,0.6-0.4,0.7-0.8c0.2-0.3,0.3-0.7,0.3-1.2c0-0.4-0.1-0.8-0.3-1.2c-0.2-0.3-0.4-0.6-0.7-0.8c-0.3-0.2-0.7-0.3-1.1-0.3
		C97.1,53.1,96.6,53.3,96.2,53.7z"/>
	<path class="st0" d="M112.5,52.3c0.4,0.3,0.7,0.7,0.9,1.2V52h1.4v6.9c0,0.6-0.1,1.2-0.4,1.7c-0.3,0.5-0.6,0.9-1.1,1.2
		c-0.5,0.3-1.1,0.4-1.7,0.4c-1,0-1.7-0.2-2.3-0.7c-0.6-0.5-1-1.1-1.1-1.8h1.4c0.1,0.4,0.3,0.7,0.7,0.9c0.3,0.2,0.8,0.3,1.3,0.3
		c0.6,0,1-0.2,1.4-0.5c0.4-0.3,0.5-0.8,0.5-1.5v-1.7c-0.2,0.5-0.5,0.9-0.9,1.2c-0.4,0.3-1,0.5-1.6,0.5c-0.6,0-1.1-0.1-1.6-0.4
		c-0.5-0.3-0.8-0.7-1.1-1.2s-0.4-1.1-0.4-1.9c0-0.7,0.1-1.3,0.4-1.9s0.6-0.9,1.1-1.2c0.5-0.3,1-0.4,1.6-0.4
		C111.5,51.9,112.1,52,112.5,52.3z M109.8,53.7c-0.4,0.4-0.6,0.9-0.6,1.6c0,0.7,0.2,1.2,0.6,1.6c0.4,0.4,0.9,0.6,1.5,0.6
		c0.4,0,0.8-0.1,1.1-0.3c0.3-0.2,0.6-0.4,0.7-0.8c0.2-0.3,0.3-0.7,0.3-1.2c0-0.4-0.1-0.8-0.3-1.2c-0.2-0.3-0.4-0.6-0.7-0.8
		c-0.3-0.2-0.7-0.3-1.1-0.3C110.7,53.1,110.2,53.3,109.8,53.7z"/>
	<path class="st0" d="M130.8,52l2,5l1.9-5h1.6l-4.1,10h-1.6l1.5-3.4l-2.9-6.6H130.8z"/>
	<path class="st0" d="M147.4,52.3c0.5,0.3,0.9,0.7,1.2,1.2c0.3,0.5,0.4,1.1,0.4,1.9c0,0.7-0.1,1.3-0.4,1.9c-0.3,0.5-0.7,0.9-1.2,1.2
		c-0.5,0.3-1.1,0.4-1.8,0.4s-1.3-0.1-1.8-0.4c-0.5-0.3-0.9-0.7-1.2-1.2c-0.3-0.5-0.5-1.1-0.5-1.9c0-0.7,0.2-1.3,0.5-1.9
		c0.3-0.5,0.7-0.9,1.2-1.2c0.5-0.3,1.1-0.4,1.8-0.4S146.9,52,147.4,52.3z M144.6,53.4c-0.3,0.2-0.6,0.4-0.7,0.8
		c-0.2,0.3-0.3,0.8-0.3,1.3c0,0.5,0.1,0.9,0.3,1.3c0.2,0.3,0.4,0.6,0.7,0.8c0.3,0.2,0.6,0.2,1,0.2s0.7-0.1,1-0.2
		c0.3-0.2,0.6-0.4,0.7-0.8c0.2-0.3,0.3-0.8,0.3-1.3c0-0.5-0.1-0.9-0.3-1.3c-0.2-0.3-0.4-0.6-0.7-0.8c-0.3-0.2-0.6-0.2-1-0.2
		S144.9,53.2,144.6,53.4z"/>
	<path class="st0" d="M162,52v6.8h-1.4v-1.5c-0.2,0.5-0.5,0.9-0.9,1.2c-0.4,0.3-0.9,0.4-1.5,0.4c-0.8,0-1.4-0.3-1.9-0.8
		c-0.5-0.5-0.7-1.2-0.7-2.2V52h1.4v3.8c0,0.6,0.2,1.1,0.5,1.4c0.3,0.3,0.7,0.5,1.3,0.5c0.6,0,1-0.2,1.4-0.5c0.3-0.4,0.5-0.9,0.5-1.6
		V52H162z"/>
	<path class="st0" d="M171.4,52.2c0.4-0.3,0.9-0.4,1.5-0.4v1.5h-0.4c-0.6,0-1.1,0.2-1.5,0.5c-0.4,0.3-0.6,0.8-0.6,1.5v3.4H169V52
		h1.4v1.3C170.6,52.9,170.9,52.5,171.4,52.2z"/>
	<path class="st0" d="M188.8,49.6v9.1h-1.4v-9.1H188.8z"/>
	<path class="st0" d="M202,55.6h-5.3c0,0.7,0.2,1.2,0.6,1.6c0.4,0.3,0.8,0.5,1.4,0.5c0.5,0,0.9-0.1,1.2-0.4c0.3-0.2,0.5-0.6,0.6-0.9
		h1.5c-0.1,0.5-0.3,0.9-0.6,1.3c-0.3,0.4-0.7,0.7-1.1,0.9c-0.5,0.2-1,0.3-1.5,0.3c-0.7,0-1.2-0.1-1.8-0.4c-0.5-0.3-0.9-0.7-1.2-1.2
		c-0.3-0.5-0.4-1.1-0.4-1.9c0-0.7,0.1-1.3,0.4-1.9c0.3-0.5,0.7-0.9,1.2-1.2c0.5-0.3,1.1-0.4,1.8-0.4c0.7,0,1.3,0.1,1.8,0.4
		c0.5,0.3,0.9,0.7,1.2,1.1c0.3,0.5,0.4,1,0.4,1.6C202.1,55.3,202.1,55.5,202,55.6z M200.4,53.9c-0.2-0.3-0.4-0.5-0.7-0.7
		c-0.3-0.1-0.6-0.2-1-0.2c-0.6,0-1,0.2-1.4,0.5c-0.4,0.3-0.6,0.8-0.6,1.5h3.9C200.7,54.6,200.6,54.2,200.4,53.9z"/>
	<path class="st0" d="M213,52.3c0.4,0.3,0.7,0.7,0.9,1.2V52h1.4v6.9c0,0.6-0.1,1.2-0.4,1.7c-0.3,0.5-0.6,0.9-1.1,1.2
		c-0.5,0.3-1.1,0.4-1.7,0.4c-1,0-1.7-0.2-2.3-0.7c-0.6-0.5-1-1.1-1.1-1.8h1.4c0.1,0.4,0.3,0.7,0.7,0.9c0.3,0.2,0.8,0.3,1.3,0.3
		c0.6,0,1-0.2,1.4-0.5c0.4-0.3,0.5-0.8,0.5-1.5v-1.7c-0.2,0.5-0.5,0.9-0.9,1.2c-0.4,0.3-1,0.5-1.6,0.5c-0.6,0-1.1-0.1-1.6-0.4
		c-0.5-0.3-0.8-0.7-1.1-1.2c-0.3-0.5-0.4-1.1-0.4-1.9c0-0.7,0.1-1.3,0.4-1.9c0.3-0.5,0.6-0.9,1.1-1.2c0.5-0.3,1-0.4,1.6-0.4
		C212.1,51.9,212.6,52,213,52.3z M210.4,53.7c-0.4,0.4-0.6,0.9-0.6,1.6c0,0.7,0.2,1.2,0.6,1.6c0.4,0.4,0.9,0.6,1.5,0.6
		c0.4,0,0.8-0.1,1.1-0.3c0.3-0.2,0.6-0.4,0.7-0.8c0.2-0.3,0.3-0.7,0.3-1.2c0-0.4-0.1-0.8-0.3-1.2c-0.2-0.3-0.4-0.6-0.7-0.8
		c-0.3-0.2-0.7-0.3-1.1-0.3C211.2,53.1,210.7,53.3,210.4,53.7z"/>
	<path class="st0" d="M226.7,52.3c0.4,0.3,0.7,0.7,0.9,1.2V52h1.4v6.8h-1.4v-1.6c-0.2,0.5-0.5,0.9-0.9,1.2c-0.4,0.3-1,0.5-1.6,0.5
		c-0.6,0-1.1-0.1-1.6-0.4c-0.5-0.3-0.8-0.7-1.1-1.2c-0.3-0.5-0.4-1.1-0.4-1.9c0-0.7,0.1-1.3,0.4-1.9c0.3-0.5,0.6-0.9,1.1-1.2
		c0.5-0.3,1-0.4,1.6-0.4C225.7,51.9,226.2,52,226.7,52.3z M224,53.7c-0.4,0.4-0.6,0.9-0.6,1.6c0,0.7,0.2,1.2,0.6,1.6
		c0.4,0.4,0.9,0.6,1.5,0.6c0.4,0,0.8-0.1,1.1-0.3c0.3-0.2,0.6-0.4,0.7-0.8c0.2-0.3,0.3-0.7,0.3-1.2c0-0.4-0.1-0.8-0.3-1.2
		c-0.2-0.3-0.4-0.6-0.7-0.8c-0.3-0.2-0.7-0.3-1.1-0.3C224.9,53.1,224.4,53.3,224,53.7z"/>
	<path class="st0" d="M237.4,49.6v9.1H236v-9.1H237.4z"/>
	<path class="st0" d="M262.1,52l-1.9,6.8h-1.6l-1.7-5.3l-1.7,5.3h-1.5l-1.9-6.8h1.4l1.3,5.5l1.7-5.5h1.5l1.7,5.5l1.3-5.5H262.1z"/>
	<path class="st0" d="M273.2,52.3c0.5,0.3,0.9,0.7,1.2,1.2c0.3,0.5,0.4,1.1,0.4,1.9c0,0.7-0.1,1.3-0.4,1.9c-0.3,0.5-0.7,0.9-1.2,1.2
		c-0.5,0.3-1.1,0.4-1.8,0.4c-0.7,0-1.3-0.1-1.8-0.4c-0.5-0.3-0.9-0.7-1.2-1.2c-0.3-0.5-0.5-1.1-0.5-1.9c0-0.7,0.2-1.3,0.5-1.9
		c0.3-0.5,0.7-0.9,1.2-1.2c0.5-0.3,1.1-0.4,1.8-0.4C272.1,51.9,272.7,52,273.2,52.3z M270.4,53.4c-0.3,0.2-0.6,0.4-0.7,0.8
		c-0.2,0.3-0.3,0.8-0.3,1.3c0,0.5,0.1,0.9,0.3,1.3c0.2,0.3,0.4,0.6,0.7,0.8s0.6,0.2,1,0.2c0.4,0,0.7-0.1,1-0.2s0.6-0.4,0.7-0.8
		c0.2-0.3,0.3-0.8,0.3-1.3c0-0.5-0.1-0.9-0.3-1.3c-0.2-0.3-0.4-0.6-0.7-0.8s-0.6-0.2-1-0.2C271.1,53.1,270.7,53.2,270.4,53.4z"/>
	<path class="st0" d="M283.9,52.2c0.4-0.3,0.9-0.4,1.5-0.4v1.5H285c-0.6,0-1.1,0.2-1.5,0.5c-0.4,0.3-0.6,0.8-0.6,1.5v3.4h-1.4V52
		h1.4v1.3C283.2,52.9,283.5,52.5,283.9,52.2z"/>
	<path class="st0" d="M294.2,52.2c0.4-0.3,0.9-0.4,1.5-0.4v1.5h-0.4c-0.6,0-1.1,0.2-1.5,0.5c-0.4,0.3-0.6,0.8-0.6,1.5v3.4h-1.4V52
		h1.4v1.3C293.4,52.9,293.7,52.5,294.2,52.2z"/>
	<path class="st0" d="M302,49.4c0.2-0.2,0.4-0.2,0.7-0.2s0.5,0.1,0.7,0.2c0.2,0.2,0.3,0.4,0.3,0.6c0,0.2-0.1,0.4-0.3,0.6
		c-0.2,0.1-0.4,0.2-0.7,0.2s-0.5-0.1-0.7-0.2c-0.2-0.1-0.2-0.3-0.2-0.6C301.8,49.8,301.8,49.6,302,49.4z M303.4,52v6.8H302V52H303.4
		z"/>
	<path class="st0" d="M316.6,55.6h-5.3c0,0.7,0.2,1.2,0.6,1.6c0.4,0.3,0.8,0.5,1.4,0.5c0.5,0,0.9-0.1,1.2-0.4
		c0.3-0.2,0.5-0.6,0.6-0.9h1.5c-0.1,0.5-0.3,0.9-0.6,1.3c-0.3,0.4-0.7,0.7-1.1,0.9c-0.5,0.2-1,0.3-1.5,0.3c-0.7,0-1.2-0.1-1.8-0.4
		c-0.5-0.3-0.9-0.7-1.2-1.2c-0.3-0.5-0.4-1.1-0.4-1.9c0-0.7,0.1-1.3,0.4-1.9c0.3-0.5,0.7-0.9,1.2-1.2c0.5-0.3,1.1-0.4,1.8-0.4
		c0.7,0,1.3,0.1,1.8,0.4c0.5,0.3,0.9,0.7,1.2,1.1c0.3,0.5,0.4,1,0.4,1.6C316.7,55.3,316.7,55.5,316.6,55.6z M315,53.9
		c-0.2-0.3-0.4-0.5-0.7-0.7s-0.6-0.2-1-0.2c-0.6,0-1,0.2-1.4,0.5c-0.4,0.3-0.6,0.8-0.6,1.5h3.9C315.3,54.6,315.2,54.2,315,53.9z"/>
	<path class="st0" d="M327.5,52.5c0.5,0.4,0.8,1,0.9,1.6H327c-0.1-0.4-0.2-0.7-0.5-0.9c-0.3-0.2-0.6-0.3-1-0.3
		c-0.4,0-0.6,0.1-0.8,0.3c-0.2,0.2-0.3,0.4-0.3,0.7c0,0.2,0.1,0.4,0.2,0.5c0.1,0.1,0.3,0.2,0.5,0.3c0.2,0.1,0.5,0.2,0.9,0.2
		c0.5,0.1,0.9,0.2,1.2,0.4c0.3,0.1,0.6,0.3,0.8,0.6c0.2,0.3,0.3,0.6,0.3,1.1c0,0.6-0.2,1-0.7,1.4c-0.4,0.4-1,0.5-1.8,0.5
		c-0.9,0-1.5-0.2-2.1-0.6c-0.5-0.4-0.8-0.9-0.9-1.7h1.4c0,0.4,0.2,0.7,0.5,0.9c0.3,0.2,0.7,0.3,1.1,0.3c0.3,0,0.6-0.1,0.8-0.3
		c0.2-0.2,0.3-0.4,0.3-0.7c0-0.2-0.1-0.4-0.2-0.6c-0.1-0.1-0.3-0.2-0.6-0.3c-0.2-0.1-0.5-0.2-0.9-0.2c-0.5-0.1-0.9-0.2-1.2-0.3
		c-0.3-0.1-0.6-0.3-0.8-0.6c-0.2-0.3-0.3-0.6-0.3-1.1c0-0.6,0.2-1,0.7-1.4c0.4-0.4,1-0.5,1.8-0.5C326.4,51.9,327,52.1,327.5,52.5z"
		/>
</g>
</svg>
